<?xml version="1.0" encoding="UTF-8" standalone="no"?>
<!DOCTYPE svg PUBLIC "-//W3C//DTD SVG 1.1//EN" "http://www.w3.org/Graphics/SVG/1.1/DTD/svg11.dtd">
<svg version="1.1" xmlns="http://www.w3.org/2000/svg" xmlns:xlink="http://www.w3.org/1999/xlink" preserveAspectRatio="xMidYMid meet" viewBox="0 0 640 640" width="640" height="640"><defs><path d="M324.46 101.48L332.42 102.62L340.29 104.07L348.04 105.82L355.67 107.86L363.19 110.2L370.57 112.83L377.82 115.73L384.92 118.9L391.88 122.34L398.68 126.03L405.32 129.98L411.79 134.18L418.09 138.61L424.2 143.28L430.13 148.17L435.86 153.28L441.39 158.61L446.72 164.14L451.83 169.87L456.72 175.8L461.39 181.91L465.82 188.21L470.02 194.68L473.97 201.32L477.66 208.12L481.1 215.08L484.27 222.18L487.17 229.43L489.8 236.81L492.14 244.33L494.18 251.96L495.93 259.71L497.38 267.58L498.52 275.54L499.34 283.61L499.83 291.76L500 300L499.83 308.24L499.34 316.39L498.52 324.46L497.38 332.42L495.93 340.29L494.18 348.04L492.14 355.67L489.8 363.19L487.17 370.57L484.27 377.82L481.1 384.92L477.66 391.88L473.97 398.68L470.02 405.32L465.82 411.79L461.39 418.09L456.72 424.2L451.83 430.13L446.72 435.86L441.39 441.39L435.86 446.72L430.13 451.83L424.2 456.72L418.09 461.39L411.79 465.82L405.32 470.02L398.68 473.97L391.88 477.66L384.92 481.1L377.82 484.27L370.57 487.17L363.19 489.8L355.67 492.14L348.04 494.18L340.29 495.93L332.42 497.38L324.46 498.52L316.39 499.34L308.24 499.83L300 500L291.76 499.83L283.61 499.34L275.54 498.52L267.58 497.38L259.71 495.93L251.96 494.18L244.33 492.14L236.81 489.8L229.43 487.17L222.18 484.27L215.08 481.1L208.12 477.66L201.32 473.97L194.68 470.02L188.21 465.82L181.91 461.39L175.8 456.72L169.87 451.83L164.14 446.72L158.61 441.39L153.28 435.86L148.17 430.13L143.28 424.2L138.61 418.09L134.18 411.79L129.98 405.32L126.03 398.68L122.34 391.88L118.9 384.92L115.73 377.82L112.83 370.57L110.2 363.19L107.86 355.67L105.82 348.04L104.07 340.29L102.62 332.42L101.48 324.46L100.66 316.39L100.17 308.24L100 300L100.17 291.76L100.66 283.61L101.48 275.54L102.62 267.58L104.07 259.71L105.82 251.96L107.86 244.33L110.2 236.81L112.83 229.43L115.73 222.18L118.9 215.08L122.34 208.12L126.03 201.32L129.98 194.68L134.18 188.21L138.61 181.91L143.28 175.8L148.17 169.87L153.28 164.14L158.61 158.61L164.14 153.28L169.87 148.17L175.8 143.28L181.91 138.61L188.21 134.18L194.68 129.98L201.32 126.03L208.12 122.34L215.08 118.9L222.18 115.73L229.43 112.83L236.81 110.2L244.33 107.86L251.96 105.82L259.71 104.07L267.58 102.62L275.54 101.48L283.61 100.66L291.76 100.17L300 100L308.24 100.17L316.39 100.66L316.39 100.66L324.46 101.48ZM279.21 131.26L272.44 132.23L265.76 133.46L259.17 134.94L252.68 136.68L246.29 138.67L240.02 140.9L233.85 143.37L227.82 146.06L221.9 148.99L216.12 152.13L210.48 155.48L204.98 159.05L199.63 162.82L194.43 166.78L189.39 170.94L184.52 175.29L179.82 179.82L175.29 184.52L170.94 189.39L166.78 194.43L162.82 199.63L159.05 204.98L155.48 210.48L152.13 216.12L148.99 221.9L146.06 227.82L143.37 233.85L140.9 240.02L138.67 246.29L136.68 252.68L134.94 259.17L133.46 265.76L132.23 272.44L131.26 279.21L130.56 286.07L130.14 293L130 300L130.14 307L130.56 313.93L131.26 320.79L132.23 327.56L133.46 334.24L134.94 340.83L136.68 347.32L138.67 353.71L140.9 359.98L143.37 366.15L146.06 372.18L148.99 378.1L152.13 383.88L155.48 389.52L159.05 395.02L162.82 400.37L166.78 405.57L170.94 410.61L175.29 415.48L179.82 420.18L184.52 424.71L189.39 429.06L194.43 433.22L199.63 437.18L204.98 440.95L210.48 444.52L216.12 447.87L221.9 451.01L227.82 453.94L233.85 456.63L240.02 459.1L246.29 461.33L252.68 463.32L259.17 465.06L265.76 466.54L272.44 467.77L279.21 468.74L286.07 469.44L293 469.86L300 470L307 469.86L313.93 469.44L320.79 468.74L327.56 467.77L334.24 466.54L340.83 465.06L347.32 463.32L353.71 461.33L359.98 459.1L366.15 456.63L372.18 453.94L378.1 451.01L383.88 447.87L389.52 444.52L395.02 440.95L400.37 437.18L405.57 433.22L410.61 429.06L415.48 424.71L420.18 420.18L424.71 415.48L429.06 410.61L433.22 405.57L437.18 400.37L440.95 395.02L444.52 389.52L447.87 383.88L451.01 378.1L453.94 372.18L456.63 366.15L459.1 359.98L461.33 353.71L463.32 347.32L465.06 340.83L466.54 334.24L467.77 327.56L468.74 320.79L469.44 313.93L469.86 307L470 300L469.86 293L469.44 286.07L468.74 279.21L467.77 272.44L466.54 265.76L465.06 259.17L463.32 252.68L461.33 246.29L459.1 240.02L456.63 233.85L453.94 227.82L451.01 221.9L447.87 216.12L444.52 210.48L440.95 204.98L437.18 199.63L433.22 194.43L429.06 189.39L424.71 184.52L420.18 179.82L415.48 175.29L410.61 170.94L405.57 166.78L400.37 162.82L395.02 159.05L389.52 155.48L383.88 152.13L378.1 148.99L372.18 146.06L366.15 143.37L359.98 140.9L353.71 138.67L347.32 136.68L340.83 134.94L334.24 133.46L327.56 132.23L320.79 131.26L313.93 130.56L307 130.14L300 130L293 130.14L286.07 130.56L286.07 130.56L279.21 131.26Z" id="a3oXvjxxFx"></path><path d="M209.66 407.04C249.73 440.04 289.8 456.54 329.87 456.54C369.94 456.54 417.08 447.11 471.29 428.26L471.29 428.26C445.39 443.74 429.2 453.42 422.73 457.29C347.21 502.43 250.67 490.47 188.45 428.26C188.45 428.26 188.45 428.26 188.45 428.26L209.66 407.04Z" id="d2rqxYI62T"></path><path d="M434.92 328.18C443.48 276.87 437.72 233.83 417.65 199.06C397.57 164.29 365.77 128.1 322.25 90.51L322.25 90.51C348.66 105.23 365.17 114.43 371.78 118.11C448.79 161.02 486.78 250.8 463.96 335.96C463.96 335.96 463.96 335.96 463.96 335.96L434.92 328.18Z" id="a1VF7T4YpX"></path><path d="M255.19 166.31C206.48 184.55 172.08 211.06 152.01 245.83C131.93 280.6 116.49 326.23 105.69 382.73L105.69 382.73C105.23 352.49 104.95 333.59 104.83 326.03C103.49 237.88 162.25 160.09 247.41 137.27C247.41 137.27 247.41 137.27 247.41 137.27L255.19 166.31Z" id="f4F7KXbmS5"></path></defs><g><g><g><use xlink:href="#a3oXvjxxFx" opacity="1" fill="#ffffff" fill-opacity="1"></use><g><use xlink:href="#a3oXvjxxFx" opacity="1" fill-opacity="0" stroke="#c015b5" stroke-width="1" stroke-opacity="0"></use></g></g><g><use xlink:href="#d2rqxYI62T" opacity="1" fill="#ffb900" fill-opacity="0.42"></use><g><use xlink:href="#d2rqxYI62T" opacity="1" fill-opacity="0" stroke="#c015b3" stroke-width="1" stroke-opacity="0"></use></g></g><g><use xlink:href="#a1VF7T4YpX" opacity="1" fill="#ffb900" fill-opacity="0.42"></use><g><use xlink:href="#a1VF7T4YpX" opacity="1" fill-opacity="0" stroke="#c015b2" stroke-width="1" stroke-opacity="0"></use></g></g><g><use xlink:href="#f4F7KXbmS5" opacity="1" fill="#ffb900" fill-opacity="0.42"></use><g><use xlink:href="#f4F7KXbmS5" opacity="1" fill-opacity="0" stroke="#c015b2" stroke-width="1" stroke-opacity="0"></use></g></g></g></g></svg>