<?xml version="1.0" encoding="UTF-8" standalone="no"?>
<!DOCTYPE svg PUBLIC "-//W3C//DTD SVG 1.1//EN" "http://www.w3.org/Graphics/SVG/1.1/DTD/svg11.dtd">
<svg version="1.1" xmlns="http://www.w3.org/2000/svg" xmlns:xlink="http://www.w3.org/1999/xlink" preserveAspectRatio="xMidYMid meet" viewBox="0 0 640 640" width="64" height="64"><defs><path d="M424.46 101.48L432.42 102.62L440.29 104.07L448.04 105.82L455.67 107.86L463.19 110.2L470.57 112.83L477.82 115.73L484.92 118.9L491.88 122.34L498.68 126.03L505.32 129.98L511.79 134.18L518.09 138.61L524.2 143.28L530.13 148.17L535.86 153.28L541.39 158.61L546.72 164.14L551.83 169.87L556.72 175.8L561.39 181.91L565.82 188.21L570.02 194.68L573.97 201.32L577.66 208.12L581.1 215.08L584.27 222.18L587.17 229.43L589.8 236.81L592.14 244.33L594.18 251.96L595.93 259.71L597.38 267.58L598.52 275.54L598.97 280L650 280L650 320L598.97 320L598.52 324.46L597.38 332.42L595.93 340.29L594.18 348.04L592.14 355.67L589.8 363.19L587.17 370.57L584.27 377.82L581.1 384.92L577.66 391.88L573.97 398.68L570.02 405.32L565.82 411.79L561.39 418.09L556.72 424.2L551.83 430.13L546.72 435.86L541.39 441.39L535.86 446.72L530.13 451.83L524.2 456.72L518.09 461.39L511.79 465.82L505.32 470.02L498.68 473.97L491.88 477.66L484.92 481.1L477.82 484.27L470.57 487.17L463.19 489.8L455.67 492.14L448.04 494.18L440.29 495.93L432.42 497.38L424.46 498.52L420 498.97L420 550L380 550L380 498.97L375.54 498.52L367.58 497.38L359.71 495.93L351.96 494.18L344.33 492.14L336.81 489.8L329.43 487.17L322.18 484.27L315.08 481.1L308.12 477.66L301.32 473.97L294.68 470.02L288.21 465.82L281.91 461.39L275.8 456.72L269.87 451.83L264.14 446.72L258.61 441.39L253.28 435.86L248.17 430.13L243.28 424.2L238.61 418.09L234.18 411.79L229.98 405.32L226.03 398.68L222.34 391.88L218.9 384.92L215.73 377.82L212.83 370.57L210.2 363.19L207.86 355.67L205.82 348.04L204.07 340.29L202.62 332.42L201.48 324.46L201.03 320L150 320L150 280L201.03 280L201.48 275.54L202.62 267.58L204.07 259.71L205.82 251.96L207.86 244.33L210.2 236.81L212.83 229.43L215.73 222.18L218.9 215.08L222.34 208.12L226.03 201.32L229.98 194.68L234.18 188.21L238.61 181.91L243.28 175.8L248.17 169.87L253.28 164.14L258.61 158.61L264.14 153.28L269.87 148.17L275.8 143.28L281.91 138.61L288.21 134.18L294.68 129.98L301.32 126.03L308.12 122.34L315.08 118.9L322.18 115.73L329.43 112.83L336.81 110.2L344.33 107.86L351.96 105.82L359.71 104.07L367.58 102.62L375.54 101.48L380 101.03L380 50L420 50L420 101.03L424.46 101.48ZM380 190L380 151.35L375.68 151.96L369.79 153.05L363.97 154.36L358.24 155.9L352.61 157.65L347.07 159.62L341.64 161.8L336.31 164.17L331.09 166.75L325.99 169.53L321.01 172.49L316.16 175.63L311.44 178.96L306.85 182.46L302.4 186.13L298.1 189.96L293.95 193.95L289.96 198.1L286.13 202.4L282.46 206.85L278.96 211.44L275.63 216.16L272.49 221.01L269.53 225.99L266.75 231.09L264.17 236.31L261.8 241.64L259.62 247.07L257.65 252.61L255.9 258.24L254.36 263.97L253.05 269.79L251.96 275.68L251.35 280L290 280L290 320L251.35 320L251.96 324.32L253.05 330.21L254.36 336.03L255.9 341.76L257.65 347.39L259.62 352.93L261.8 358.36L264.17 363.69L266.75 368.91L269.53 374.01L272.49 378.99L275.63 383.84L278.96 388.56L282.46 393.15L286.13 397.6L289.96 401.9L293.95 406.05L298.1 410.04L302.4 413.87L306.85 417.54L311.44 421.04L316.16 424.37L321.01 427.51L325.99 430.47L331.09 433.25L336.31 435.83L341.64 438.2L347.07 440.38L352.61 442.35L358.24 444.1L363.97 445.64L369.79 446.95L375.68 448.04L380 448.65L380 410L420 410L420 448.65L424.32 448.04L430.21 446.95L436.03 445.64L441.76 444.1L447.39 442.35L452.93 440.38L458.36 438.2L463.69 435.83L468.91 433.25L474.01 430.47L478.99 427.51L483.84 424.37L488.56 421.04L493.15 417.54L497.6 413.87L501.9 410.04L506.05 406.05L510.04 401.9L513.87 397.6L517.54 393.15L521.04 388.56L524.37 383.84L527.51 378.99L530.47 374.01L533.25 368.91L535.83 363.69L538.2 358.36L540.38 352.93L542.35 347.39L544.1 341.76L545.64 336.03L546.95 330.21L548.04 324.32L548.65 320L510 320L510 280L548.65 280L548.04 275.68L546.95 269.79L545.64 263.97L544.1 258.24L542.35 252.61L540.38 247.07L538.2 241.64L535.83 236.31L533.25 231.09L530.47 225.99L527.51 221.01L524.37 216.16L521.04 211.44L517.54 206.85L513.87 202.4L510.04 198.1L506.05 193.95L501.9 189.96L497.6 186.13L493.15 182.46L488.56 178.96L483.84 175.63L478.99 172.49L474.01 169.53L468.91 166.75L463.69 164.17L458.36 161.8L452.93 159.62L447.39 157.65L441.76 155.9L436.03 154.36L430.21 153.05L424.32 151.96L420 151.35L420 190L380 190Z" id="a66MNYdAI"></path><path d="M438.06 296.11L476.11 372.22C471.77 370.49 469.05 369.41 467.96 368.98C421.49 350.46 369.48 351.63 323.89 372.22C323.89 372.22 323.89 372.22 323.89 372.22L361.94 296.11L400 220L438.06 296.11Z" id="b1Suo2mFo"></path></defs><g><g><g><use xlink:href="#a66MNYdAI" opacity="1" fill="#ffffff" fill-opacity="1"></use><g><use xlink:href="#a66MNYdAI" opacity="1" fill-opacity="0" stroke="#df3951" stroke-width="1" stroke-opacity="0"></use></g></g><g><use xlink:href="#b1Suo2mFo" opacity="1" fill="#ffffff" fill-opacity="1"></use><g><use xlink:href="#b1Suo2mFo" opacity="1" fill-opacity="0" stroke="#df3750" stroke-width="1" stroke-opacity="0"></use></g></g></g></g></svg>