<?xml version="1.0" encoding="UTF-8" standalone="no"?>
<!DOCTYPE svg PUBLIC "-//W3C//DTD SVG 1.1//EN" "http://www.w3.org/Graphics/SVG/1.1/DTD/svg11.dtd">
<svg version="1.1" xmlns="http://www.w3.org/2000/svg" xmlns:xlink="http://www.w3.org/1999/xlink" preserveAspectRatio="xMidYMid meet" viewBox="0 0 640 640" width="64" height="64"><defs><path d="M424.46 101.48L432.42 102.62L440.29 104.07L448.04 105.82L455.67 107.86L463.19 110.2L470.57 112.83L477.82 115.73L484.92 118.9L491.88 122.34L498.68 126.03L505.32 129.98L511.79 134.18L518.09 138.61L524.2 143.28L530.13 148.17L535.86 153.28L541.39 158.61L546.72 164.14L551.83 169.87L556.72 175.8L561.39 181.91L565.82 188.21L570.02 194.68L573.97 201.32L577.66 208.12L581.1 215.08L584.27 222.18L587.17 229.43L589.8 236.81L592.14 244.33L594.18 251.96L595.93 259.71L597.38 267.58L598.52 275.54L598.97 280L650 280L650 320L598.97 320L598.52 324.46L597.38 332.42L595.93 340.29L594.18 348.04L592.14 355.67L589.8 363.19L587.17 370.57L584.27 377.82L581.1 384.92L577.66 391.88L573.97 398.68L570.02 405.32L565.82 411.79L561.39 418.09L556.72 424.2L551.83 430.13L546.72 435.86L541.39 441.39L535.86 446.72L530.13 451.83L524.2 456.72L518.09 461.39L511.79 465.82L505.32 470.02L498.68 473.97L491.88 477.66L484.92 481.1L477.82 484.27L470.57 487.17L463.19 489.8L455.67 492.14L448.04 494.18L440.29 495.93L432.42 497.38L424.46 498.52L420 498.97L420 550L380 550L380 498.97L375.54 498.52L367.58 497.38L359.71 495.93L351.96 494.18L344.33 492.14L336.81 489.8L329.43 487.17L322.18 484.27L315.08 481.1L308.12 477.66L301.32 473.97L294.68 470.02L288.21 465.82L281.91 461.39L275.8 456.72L269.87 451.83L264.14 446.72L258.61 441.39L253.28 435.86L248.17 430.13L243.28 424.2L238.61 418.09L234.18 411.79L229.98 405.32L226.03 398.68L222.34 391.88L218.9 384.92L215.73 377.82L212.83 370.57L210.2 363.19L207.86 355.67L205.82 348.04L204.07 340.29L202.62 332.42L201.48 324.46L201.03 320L150 320L150 280L201.03 280L201.48 275.54L202.62 267.58L204.07 259.71L205.82 251.96L207.86 244.33L210.2 236.81L212.83 229.43L215.73 222.18L218.9 215.08L222.34 208.12L226.03 201.32L229.98 194.68L234.18 188.21L238.61 181.91L243.28 175.8L248.17 169.87L253.28 164.14L258.61 158.61L264.14 153.28L269.87 148.17L275.8 143.28L281.91 138.61L288.21 134.18L294.68 129.98L301.32 126.03L308.12 122.34L315.08 118.9L322.18 115.73L329.43 112.83L336.81 110.2L344.33 107.86L351.96 105.82L359.71 104.07L367.58 102.62L375.54 101.48L380 101.03L380 50L420 50L420 101.03L424.46 101.48ZM380 190L380 151.35L375.68 151.96L369.79 153.05L363.97 154.36L358.24 155.9L352.61 157.65L347.07 159.62L341.64 161.8L336.31 164.17L331.09 166.75L325.99 169.53L321.01 172.49L316.16 175.63L311.44 178.96L306.85 182.46L302.4 186.13L298.1 189.96L293.95 193.95L289.96 198.1L286.13 202.4L282.46 206.85L278.96 211.44L275.63 216.16L272.49 221.01L269.53 225.99L266.75 231.09L264.17 236.31L261.8 241.64L259.62 247.07L257.65 252.61L255.9 258.24L254.36 263.97L253.05 269.79L251.96 275.68L251.35 280L290 280L290 320L251.35 320L251.96 324.32L253.05 330.21L254.36 336.03L255.9 341.76L257.65 347.39L259.62 352.93L261.8 358.36L264.17 363.69L266.75 368.91L269.53 374.01L272.49 378.99L275.63 383.84L278.96 388.56L282.46 393.15L286.13 397.6L289.96 401.9L293.95 406.05L298.1 410.04L302.4 413.87L306.85 417.54L311.44 421.04L316.16 424.37L321.01 427.51L325.99 430.47L331.09 433.25L336.31 435.83L341.64 438.2L347.07 440.38L352.61 442.35L358.24 444.1L363.97 445.64L369.79 446.95L375.68 448.04L380 448.65L380 410L420 410L420 448.65L424.32 448.04L430.21 446.95L436.03 445.64L441.76 444.1L447.39 442.35L452.93 440.38L458.36 438.2L463.69 435.83L468.91 433.25L474.01 430.47L478.99 427.51L483.84 424.37L488.56 421.04L493.15 417.54L497.6 413.87L501.9 410.04L506.05 406.05L510.04 401.9L513.87 397.6L517.54 393.15L521.04 388.56L524.37 383.84L527.51 378.99L530.47 374.01L533.25 368.91L535.83 363.69L538.2 358.36L540.38 352.93L542.35 347.39L544.1 341.76L545.64 336.03L546.95 330.21L548.04 324.32L548.65 320L510 320L510 280L548.65 280L548.04 275.68L546.95 269.79L545.64 263.97L544.1 258.24L542.35 252.61L540.38 247.07L538.2 241.64L535.83 236.31L533.25 231.09L530.47 225.99L527.51 221.01L524.37 216.16L521.04 211.44L517.54 206.85L513.87 202.4L510.04 198.1L506.05 193.95L501.9 189.96L497.6 186.13L493.15 182.46L488.56 178.96L483.84 175.63L478.99 172.49L474.01 169.53L468.91 166.75L463.69 164.17L458.36 161.8L452.93 159.62L447.39 157.65L441.76 155.9L436.03 154.36L430.21 153.05L424.32 151.96L420 151.35L420 190L380 190Z" id="a3r3WKR0Tj"></path><path d="M406.73 218.13L410.04 218.47L413.32 218.93L416.55 219.53L419.73 220.25L422.87 221.09L425.95 222.05L428.98 223.13L431.96 224.32L434.88 225.62L437.74 227.03L440.53 228.55L443.26 230.17L445.91 231.89L448.5 233.71L451.01 235.63L453.45 237.64L455.8 239.74L458.07 241.93L460.26 244.2L462.36 246.55L464.37 248.99L466.29 251.5L468.11 254.09L469.83 256.74L471.45 259.47L472.97 262.26L474.38 265.12L475.68 268.04L476.87 271.02L477.95 274.05L478.91 277.13L479.75 280.27L480.47 283.45L481.07 286.68L481.53 289.96L481.87 293.27L482.07 296.62L482.14 300L482.07 303.38L481.87 306.73L481.53 310.04L481.07 313.32L480.47 316.55L479.75 319.73L478.91 322.87L477.95 325.95L476.87 328.98L475.68 331.96L474.38 334.88L472.97 337.74L471.45 340.53L469.83 343.26L468.11 345.91L466.29 348.5L464.37 351.01L462.36 353.45L460.26 355.8L458.07 358.07L455.8 360.26L453.45 362.36L451.01 364.37L448.5 366.29L445.91 368.11L443.26 369.83L440.53 371.45L437.74 372.97L434.88 374.38L431.96 375.68L428.98 376.87L425.95 377.95L422.87 378.91L419.73 379.75L416.55 380.47L413.32 381.07L410.04 381.53L406.73 381.87L403.38 382.07L400 382.14L396.62 382.07L393.27 381.87L389.96 381.53L386.68 381.07L383.45 380.47L380.27 379.75L377.13 378.91L374.05 377.95L371.02 376.87L368.04 375.68L365.12 374.38L362.26 372.97L359.47 371.45L356.74 369.83L354.09 368.11L351.5 366.29L348.99 364.37L346.55 362.36L344.2 360.26L341.93 358.07L339.74 355.8L337.64 353.45L335.63 351.01L333.71 348.5L331.89 345.91L330.17 343.26L328.55 340.53L327.03 337.74L325.62 334.88L324.32 331.96L323.13 328.98L322.05 325.95L321.09 322.87L320.25 319.73L319.53 316.55L318.93 313.32L318.47 310.04L318.13 306.73L317.93 303.38L317.86 300L317.93 296.62L318.13 293.27L318.47 289.96L318.93 286.68L319.53 283.45L320.25 280.27L321.09 277.13L322.05 274.05L323.13 271.02L324.32 268.04L325.62 265.12L327.03 262.26L328.55 259.47L330.17 256.74L331.89 254.09L333.71 251.5L335.63 248.99L337.64 246.55L339.74 244.2L341.93 241.93L344.2 239.74L346.55 237.64L348.99 235.63L351.5 233.71L354.09 231.89L356.74 230.17L359.47 228.55L362.26 227.03L365.12 225.62L368.04 224.32L371.02 223.13L374.05 222.05L377.13 221.09L380.27 220.25L383.45 219.53L386.68 218.93L389.96 218.47L393.27 218.13L396.62 217.93L400 217.86L403.38 217.93L406.73 218.13ZM395.81 249.1L393.75 249.31L391.72 249.6L389.71 249.97L387.73 250.41L385.78 250.94L383.86 251.53L381.98 252.2L380.13 252.94L378.31 253.75L376.54 254.63L374.8 255.58L373.11 256.58L371.45 257.66L369.85 258.79L368.28 259.98L366.77 261.23L365.31 262.53L363.89 263.89L362.53 265.31L361.23 266.77L359.98 268.28L358.79 269.85L357.66 271.45L356.58 273.11L355.58 274.8L354.63 276.54L353.75 278.31L352.94 280.13L352.2 281.98L351.53 283.86L350.94 285.78L350.41 287.73L349.97 289.71L349.6 291.72L349.31 293.75L349.1 295.81L348.97 297.9L348.93 300L348.97 302.1L349.1 304.19L349.31 306.25L349.6 308.28L349.97 310.29L350.41 312.27L350.94 314.22L351.53 316.14L352.2 318.02L352.94 319.87L353.75 321.69L354.63 323.46L355.58 325.2L356.58 326.89L357.66 328.55L358.79 330.15L359.98 331.72L361.23 333.23L362.53 334.69L363.89 336.11L365.31 337.47L366.77 338.77L368.28 340.02L369.85 341.21L371.45 342.34L373.11 343.42L374.8 344.42L376.54 345.37L378.31 346.25L380.13 347.06L381.98 347.8L383.86 348.47L385.78 349.06L387.73 349.59L389.71 350.03L391.72 350.4L393.75 350.69L395.81 350.9L397.9 351.03L400 351.07L402.1 351.03L404.19 350.9L406.25 350.69L408.28 350.4L410.29 350.03L412.27 349.59L414.22 349.06L416.14 348.47L418.02 347.8L419.87 347.06L421.69 346.25L423.46 345.37L425.2 344.42L426.89 343.42L428.55 342.34L430.15 341.21L431.72 340.02L433.23 338.77L434.69 337.47L436.11 336.11L437.47 334.69L438.77 333.23L440.02 331.72L441.21 330.15L442.34 328.55L443.42 326.89L444.42 325.2L445.37 323.46L446.25 321.69L447.06 319.87L447.8 318.02L448.47 316.14L449.06 314.22L449.59 312.27L450.03 310.29L450.4 308.28L450.69 306.25L450.9 304.19L451.03 302.1L451.07 300L451.03 297.9L450.9 295.81L450.69 293.75L450.4 291.72L450.03 289.71L449.59 287.73L449.06 285.78L448.47 283.86L447.8 281.98L447.06 280.13L446.25 278.31L445.37 276.54L444.42 274.8L443.42 273.11L442.34 271.45L441.21 269.85L440.02 268.28L438.77 266.77L437.47 265.31L436.11 263.89L434.69 262.53L433.23 261.23L431.72 259.98L430.15 258.79L428.55 257.66L426.89 256.58L425.2 255.58L423.46 254.63L421.69 253.75L419.87 252.94L418.02 252.2L416.14 251.53L414.22 250.94L412.27 250.41L410.29 249.97L408.28 249.6L406.25 249.31L404.19 249.1L402.1 248.97L400 248.93L397.9 248.97L395.81 249.1Z" id="a50G29mVw"></path></defs><g><g><g><use xlink:href="#a3r3WKR0Tj" opacity="1" fill="#ffffff" fill-opacity="1"></use><g><use xlink:href="#a3r3WKR0Tj" opacity="1" fill-opacity="0" stroke="#df3951" stroke-width="1" stroke-opacity="0"></use></g></g><g><use xlink:href="#a50G29mVw" opacity="1" fill="#ffffff" fill-opacity="1"></use><g><use xlink:href="#a50G29mVw" opacity="1" fill-opacity="0" stroke="#df3750" stroke-width="1" stroke-opacity="0"></use></g></g></g></g></svg>