<?xml version="1.0" encoding="UTF-8" standalone="no"?>
<!DOCTYPE svg PUBLIC "-//W3C//DTD SVG 1.1//EN" "http://www.w3.org/Graphics/SVG/1.1/DTD/svg11.dtd">
<svg version="1.1" xmlns="http://www.w3.org/2000/svg" xmlns:xlink="http://www.w3.org/1999/xlink" preserveAspectRatio="xMidYMid meet" viewBox="0 0 640 640" width="64" height="64"><defs><path d="M2.72 639.74L2.57 639.71L2.42 639.68L2.27 639.63L2.12 639.59L1.98 639.53L1.98 639.53L1.84 639.47L1.71 639.41L1.58 639.33L1.45 639.25L1.33 639.17L1.21 639.08L1.1 638.99L0.99 638.89L0.89 638.78L0.79 638.68L0.7 638.56L0.61 638.45L0.52 638.32L0.45 638.2L0.37 638.07L0.31 637.94L0.25 637.81L0.19 637.67L0.15 637.53L0.11 637.39L0.07 637.24L0.04 637.1L0.02 636.95L0.01 636.8L0 636.65L0 636.5L0.01 636.34L0.02 636.19L0.05 636.03L0.05 636.03L0.08 635.88L0.12 635.72L0.16 635.57L0.76 633.79L1.38 631.92L2.03 629.97L2.71 627.94L3.41 625.84L4.13 623.67L4.13 623.67L4.88 621.44L5.64 619.14L6.42 616.8L6.42 616.8L7.22 614.41L8.03 611.97L8.85 609.5L9.69 607L10.53 604.47L11.39 601.91L12.24 599.34L13.1 596.75L13.97 594.16L14.83 591.57L15.7 588.98L17.41 583.83L18.26 581.28L19.11 578.75L19.94 576.25L20.76 573.78L21.57 571.36L22.37 568.97L23.15 566.64L23.91 564.35L24.65 562.13L25.37 559.97L25.37 559.97L26.06 557.88L26.74 555.86L26.74 555.86L27.38 553.93L28 552.07L28.59 550.31L29.15 548.64L29.67 547.07L30.16 545.6L30.16 545.6L30.56 544.46L30.99 543.35L31.46 542.25L31.96 541.17L32.49 540.11L33.05 539.07L33.64 538.06L34.26 537.07L34.91 536.1L35.59 535.15L36.3 534.23L36.3 534.23L37.03 533.33L37.79 532.45L38.58 531.6L39.39 530.78L40.22 529.98L41.08 529.21L41.96 528.47L42.86 527.75L43.79 527.07L44.73 526.41L45.7 525.78L46.68 525.18L47.68 524.61L48.7 524.07L49.74 523.56L50.79 523.08L51.86 522.64L52.95 522.23L54.05 521.85L55.16 521.51L56.29 521.19L57.42 520.92L58.57 520.68L59.73 520.47L60.91 520.3L62.09 520.17L63.28 520.08L64.47 520.02L65.68 520L574.35 520L575.56 520.02L576.75 520.08L577.94 520.17L579.12 520.3L580.3 520.47L581.46 520.68L582.61 520.92L583.74 521.19L584.87 521.51L585.98 521.85L587.08 522.23L588.17 522.64L589.24 523.08L590.29 523.56L591.33 524.07L592.35 524.61L593.35 525.18L594.33 525.78L595.3 526.41L596.24 527.07L597.17 527.75L598.07 528.47L598.95 529.21L599.81 529.98L600.64 530.78L601.45 531.6L602.24 532.45L603 533.33L603.73 534.23L604.44 535.15L605.12 536.1L605.77 537.07L606.39 538.06L606.98 539.07L607.54 540.11L608.07 541.17L608.57 542.25L609.04 543.35L609.47 544.46L609.87 545.6L610.36 547.07L610.88 548.64L611.44 550.31L612.03 552.07L612.65 553.93L613.29 555.86L613.97 557.88L614.66 559.97L615.38 562.13L616.12 564.35L616.88 566.64L617.66 568.97L618.46 571.36L619.27 573.78L620.09 576.25L620.92 578.75L621.77 581.28L622.62 583.83L624.33 588.98L625.2 591.57L626.06 594.16L626.93 596.75L627.79 599.34L628.64 601.91L629.5 604.47L630.34 607L631.18 609.5L632 611.97L632.81 614.41L633.61 616.8L634.39 619.14L635.15 621.44L635.9 623.67L636.62 625.84L637.32 627.94L638 629.97L638.65 631.92L639.27 633.79L639.87 635.57L639.91 635.72L639.95 635.88L639.98 636.03L640.01 636.19L640.02 636.34L640.03 636.5L640.03 636.65L640.02 636.8L640.01 636.95L639.99 637.1L639.96 637.24L639.92 637.39L639.88 637.53L639.84 637.67L639.78 637.81L639.72 637.94L639.65 638.07L639.58 638.2L639.51 638.32L639.42 638.45L639.33 638.56L639.24 638.68L639.14 638.78L639.04 638.89L638.93 638.99L638.82 639.08L638.7 639.17L638.58 639.25L638.45 639.33L638.32 639.41L638.19 639.47L638.05 639.53L637.91 639.59L637.76 639.63L637.61 639.68L637.46 639.71L637.31 639.74L637.15 639.76L636.99 639.77L636.83 639.77L3.2 639.77L3.04 639.77L2.88 639.76L2.72 639.74Z" id="dRijwWAKl"></path><path d="M369.21 508.72L369.43 508.82L369.66 508.97L369.88 509.15L370.1 509.38L370.32 509.64L370.53 509.94L370.74 510.29L370.96 510.66L371.16 511.08L371.37 511.53L371.57 512.02L371.77 512.54L371.97 513.1L372.16 513.69L372.35 514.31L372.54 514.97L372.72 515.66L372.9 516.38L373.07 517.14L373.24 517.92L373.41 518.74L373.57 519.58L373.73 520.46L373.88 521.36L374.03 522.29L374.18 523.25L374.32 524.24L374.45 525.25L374.58 526.29L374.7 527.35L374.82 528.44L374.93 529.56L375.04 530.69L375.14 531.85L375.23 533.03L375.32 534.24L375.4 535.47L375.48 536.71L375.57 538.32L375.67 540.04L375.78 541.88L375.89 543.81L376 545.84L376.13 547.97L376.25 550.18L376.39 552.47L376.52 554.84L376.66 557.28L376.81 559.78L376.95 562.35L377.1 564.96L377.26 567.62L377.41 570.33L377.73 575.84L378.22 584.29L378.38 587.13L378.54 589.98L378.87 595.65L379.03 598.47L379.19 601.28L379.35 604.05L379.51 606.8L379.67 609.51L379.82 612.18L379.97 614.81L380.12 617.38L380.27 619.89L380.41 622.34L380.54 624.72L380.68 627.03L380.8 629.25L380.93 631.39L381.05 633.44L381.16 635.39L381.17 635.56L381.17 635.73L381.18 635.9L381.18 636.07L381.19 636.24L381.19 636.41L381.19 636.58L381.19 636.74L381.19 636.9L381.18 637.07L381.18 637.23L381.17 637.39L381.16 637.54L381.15 637.7L381.14 637.85L381.13 637.99L381.12 638.14L381.1 638.28L381.09 638.41L381.07 638.55L381.06 638.67L381.04 638.8L381.02 638.92L381 639.03L380.98 639.14L380.96 639.24L380.94 639.34L380.91 639.43L380.89 639.52L380.87 639.6L380.84 639.67L380.81 639.74L380.79 639.8L380.76 639.85L380.73 639.89L380.7 639.93L380.67 639.96L380.64 639.98L380.61 640L380.58 640L260.61 640L260.58 640L260.54 639.98L260.52 639.96L260.49 639.93L260.46 639.89L260.43 639.85L260.4 639.8L260.38 639.74L260.35 639.67L260.32 639.6L260.3 639.52L260.28 639.43L260.25 639.34L260.23 639.24L260.21 639.14L260.19 639.03L260.17 638.92L260.15 638.8L260.13 638.67L260.12 638.55L260.1 638.41L260.08 638.28L260.07 638.14L260.06 637.99L260.05 637.85L260.04 637.7L260.03 637.54L260.02 637.39L260.01 637.23L260.01 637.07L260 636.9L260 636.74L260 636.58L260 636.41L260 636.24L260 636.07L260.01 635.9L260.01 635.73L260.01 635.73L260.02 635.56L260.03 635.39L260.14 633.44L260.26 631.39L260.38 629.25L260.51 627.03L260.51 627.03L260.65 624.72L260.78 622.34L260.92 619.89L261.07 617.38L261.22 614.81L261.37 612.18L261.52 609.51L261.52 609.51L261.68 606.8L261.83 604.05L261.83 604.05L261.99 601.28L262.16 598.47L262.32 595.65L262.64 589.98L262.81 587.13L262.97 584.29L262.97 584.29L263.46 575.84L263.78 570.33L263.93 567.62L264.08 564.96L264.24 562.35L264.38 559.78L264.53 557.28L264.67 554.84L264.8 552.47L264.94 550.18L265.06 547.97L265.18 545.84L265.3 543.81L265.41 541.88L265.52 540.04L265.62 538.32L265.71 536.71L265.79 535.47L265.87 534.24L265.96 533.03L266.05 531.85L266.15 530.69L266.26 529.56L266.37 528.44L266.49 527.35L266.61 526.29L266.74 525.25L266.87 524.24L267.01 523.25L267.16 522.29L267.3 521.36L267.46 520.46L267.62 519.58L267.78 518.74L267.95 517.92L268.12 517.14L268.29 516.38L268.47 515.66L268.65 514.97L268.84 514.31L269.03 513.69L269.22 513.1L269.42 512.54L269.62 512.02L269.82 511.53L270.03 511.08L270.23 510.66L270.44 510.29L270.66 509.94L270.87 509.64L271.09 509.38L271.31 509.15L271.53 508.97L271.76 508.82L271.98 508.72L272.21 508.66L272.44 508.63L368.75 508.63L368.98 508.66L369.21 508.72Z" id="aXk4EVdw"></path><path d="M3.15 640L2.98 639.98L2.82 639.96L2.66 639.94L2.5 639.9L2.35 639.86L2.2 639.81L2.05 639.75L1.91 639.69L1.77 639.62L1.64 639.55L1.51 639.46L1.38 639.38L1.26 639.28L1.14 639.19L1.14 639.19L1.03 639.08L0.92 638.98L0.82 638.86L0.72 638.75L0.63 638.63L0.54 638.5L0.46 638.37L0.39 638.24L0.32 638.1L0.26 637.96L0.2 637.82L0.15 637.68L0.11 637.53L0.07 637.38L0.04 637.23L0.02 637.08L0.01 636.92L0 636.76L0 636.61L0.01 636.45L0.02 636.29L0.05 636.13L0.08 635.97L0.12 635.81L0.17 635.65L0.79 633.8L1.43 631.87L2.1 629.84L2.81 627.74L3.53 625.56L4.28 623.31L5.05 621L5.85 618.62L5.84 618.62L6.65 616.19L7.48 613.72L8.32 611.19L9.18 608.63L10.04 606.04L10.92 603.41L11.8 600.76L12.69 598.1L13.58 595.42L14.48 592.74L15.37 590.05L16.27 587.36L18.05 582.03L18.93 579.38L19.8 576.76L20.66 574.17L21.52 571.62L22.36 569.1L23.18 566.63L23.99 564.21L24.77 561.84L25.54 559.54L26.29 557.3L27.01 555.14L27.71 553.05L28.38 551.04L28.38 551.04L29.02 549.12L29.63 547.29L30.2 545.56L30.75 543.93L31.25 542.41L31.67 541.23L32.12 540.07L32.6 538.94L33.12 537.82L33.67 536.72L34.25 535.65L34.86 534.6L35.51 533.57L36.18 532.56L36.88 531.58L37.62 530.62L38.38 529.69L39.16 528.79L39.98 527.91L40.82 527.05L41.68 526.23L42.57 525.43L43.48 524.66L44.42 523.92L45.38 523.2L46.35 522.52L47.35 521.87L48.37 521.25L49.41 520.66L50.47 520.1L51.54 519.57L52.64 519.08L53.75 518.62L54.87 518.19L56.01 517.8L57.16 517.44L58.33 517.12L59.51 516.83L60.7 516.58L61.9 516.37L63.12 516.2L64.34 516.06L65.57 515.96L66.81 515.9L68.06 515.88L113.03 515.88L113.03 640L3.32 640L3.32 640L3.15 640Z" id="k5sutLmJm"></path><path d="M575.66 516.06L576.88 516.2L578.1 516.37L579.3 516.58L580.49 516.83L581.67 517.12L582.84 517.44L583.99 517.8L585.13 518.19L586.25 518.62L587.36 519.08L588.46 519.57L589.53 520.1L590.59 520.66L591.63 521.25L592.65 521.87L593.65 522.52L594.62 523.2L595.58 523.92L596.52 524.66L597.43 525.43L598.32 526.23L599.18 527.05L600.02 527.91L600.84 528.79L601.62 529.69L602.38 530.62L603.12 531.58L603.82 532.56L604.49 533.57L605.14 534.6L605.75 535.65L606.33 536.72L606.88 537.82L607.4 538.94L607.88 540.07L608.33 541.23L608.75 542.41L609.25 543.93L609.8 545.56L610.37 547.29L610.98 549.12L611.62 551.04L611.62 551.04L612.29 553.05L612.99 555.14L613.71 557.3L614.46 559.54L615.23 561.84L616.01 564.21L616.82 566.63L617.64 569.1L618.48 571.62L619.34 574.17L620.2 576.76L620.2 576.76L621.07 579.38L621.95 582.03L623.73 587.36L624.63 590.05L625.52 592.74L626.42 595.42L627.31 598.1L628.2 600.76L629.08 603.41L629.96 606.04L630.82 608.63L631.68 611.19L632.52 613.72L633.35 616.19L634.16 618.62L634.95 621L635.72 623.31L636.47 625.56L637.19 627.74L637.9 629.84L638.57 631.87L639.21 633.8L639.83 635.65L639.88 635.81L639.92 635.97L639.95 636.13L639.98 636.29L639.99 636.45L640 636.61L640 636.76L639.99 636.92L639.98 637.08L639.96 637.23L639.93 637.38L639.89 637.53L639.85 637.68L639.8 637.82L639.74 637.96L639.68 638.1L639.61 638.24L639.61 638.24L639.54 638.37L639.46 638.5L639.37 638.63L639.28 638.75L639.18 638.86L639.08 638.98L638.97 639.08L638.86 639.19L638.74 639.28L638.62 639.38L638.49 639.46L638.36 639.55L638.23 639.62L638.09 639.69L637.95 639.75L637.8 639.81L637.65 639.86L637.5 639.9L637.34 639.94L637.18 639.96L637.02 639.98L636.85 640L636.68 640L526.97 640L526.97 515.88L571.94 515.88L573.19 515.9L574.43 515.96L574.43 515.96L575.66 516.06Z" id="c4cU2ytl12"></path></defs><g><g><g><use xlink:href="#dRijwWAKl" opacity="1" fill="#ffffff" fill-opacity="1"></use><g><use xlink:href="#dRijwWAKl" opacity="1" fill-opacity="0" stroke="#000000" stroke-width="1" stroke-opacity="0"></use></g></g><g><use xlink:href="#aXk4EVdw" opacity="1" fill="#dbdbdb" fill-opacity="1"></use><g><use xlink:href="#aXk4EVdw" opacity="1" fill-opacity="0" stroke="#000000" stroke-width="1" stroke-opacity="0"></use></g></g><g><use xlink:href="#k5sutLmJm" opacity="1" fill="#dbdbdb" fill-opacity="1"></use><g><use xlink:href="#k5sutLmJm" opacity="1" fill-opacity="0" stroke="#000000" stroke-width="1" stroke-opacity="0"></use></g></g><g><use xlink:href="#c4cU2ytl12" opacity="1" fill="#dbdbdb" fill-opacity="1"></use><g><use xlink:href="#c4cU2ytl12" opacity="1" fill-opacity="0" stroke="#000000" stroke-width="1" stroke-opacity="0"></use></g></g></g></g></svg>