<?xml version="1.0" encoding="UTF-8" standalone="no"?>
<!DOCTYPE svg PUBLIC "-//W3C//DTD SVG 1.1//EN" "http://www.w3.org/Graphics/SVG/1.1/DTD/svg11.dtd">
<svg version="1.1" xmlns="http://www.w3.org/2000/svg" xmlns:xlink="http://www.w3.org/1999/xlink" preserveAspectRatio="xMidYMid meet" viewBox="0 0 640 640" width="640" height="640"><defs><path d="M3.36 316.2L22.77 335.91L22.77 335.91L22.77 335.91L22.78 335.91L45.55 359.05L45.55 359.05L45.55 359.06L22.78 382.19L22.77 382.19L3.36 401.91L3.37 401.91L-35.12 441L-57.9 417.87L0 359.05L-57.9 300.24L-35.12 277.1L3.37 316.2L3.36 316.2Z" id="ddRw0cKEW"></path><path d="M48.93 316.2L68.33 335.91L68.34 335.91L68.34 335.91L68.34 335.91L91.12 359.05L91.11 359.05L91.12 359.06L68.34 382.19L68.34 382.19L48.93 401.91L48.93 401.91L10.44 441L-12.33 417.87L45.56 359.05L-12.33 300.24L10.44 277.1L48.93 316.2L48.93 316.2Z" id="bdmCLDEVj"></path><path d="M94.5 316.21L113.9 335.92L113.91 335.93L113.91 335.93L113.91 335.92L136.69 359.06L136.68 359.06L136.69 359.07L113.91 382.2L113.91 382.2L94.5 401.92L94.5 401.92L56.01 441.01L33.24 417.88L91.13 359.06L33.24 300.25L56.01 277.11L94.5 316.21L94.5 316.21Z" id="bPJoE4X8K"></path><path d="M140.06 316.2L159.47 335.91L159.47 335.91L159.47 335.91L159.48 335.91L182.25 359.05L182.25 359.05L182.25 359.06L159.48 382.19L159.47 382.19L140.06 401.91L140.06 401.91L101.58 441L78.8 417.87L136.69 359.05L78.8 300.24L101.58 277.1L140.06 316.2L140.06 316.2Z" id="aEI8d8B5l"></path><path d="M185.62 316.2L205.03 335.91L205.03 335.92L205.03 335.92L205.04 335.91L227.81 359.05L227.81 359.06L227.81 359.06L205.04 382.2L205.03 382.19L185.62 401.91L185.62 401.91L147.14 441.01L124.36 417.87L182.25 359.06L124.36 300.24L147.14 277.1L185.62 316.2L185.62 316.2Z" id="aQgYuYy5o"></path><path d="M231.19 316.19L250.59 335.9L250.6 335.91L250.6 335.91L250.6 335.9L273.37 359.04L273.37 359.05L273.37 359.05L250.6 382.19L250.6 382.18L231.19 401.9L231.19 401.9L192.7 441L169.93 417.86L227.82 359.05L169.93 300.23L192.7 277.09L231.19 316.19L231.19 316.19Z" id="a8dNWOuJC"></path><path d="M276.76 316.2L296.16 335.91L296.17 335.92L296.17 335.92L296.17 335.91L318.94 359.05L318.94 359.06L318.94 359.06L296.17 382.2L296.17 382.19L276.76 401.91L276.76 401.91L238.27 441.01L215.5 417.87L273.39 359.06L215.5 300.24L238.27 277.1L276.76 316.2L276.76 316.2Z" id="a3N1iqJa5"></path><path d="M322.32 316.19L341.72 335.9L341.73 335.91L341.73 335.91L341.73 335.9L364.51 359.04L364.5 359.05L364.51 359.05L341.73 382.19L341.73 382.18L322.32 401.9L322.32 401.9L283.84 441L261.06 417.86L318.95 359.05L261.06 300.23L283.84 277.09L322.32 316.19L322.32 316.19Z" id="c3WnMaS7Fl"></path><path d="M30.65 342.18L30.66 342.18L47.26 359.05L47.26 359.05L47.26 359.06L30.66 375.93L30.65 375.92L16.5 390.3L-11.56 418.81L-12.41 417.94L14.79 390.3L28.94 375.92L28.95 375.93L45.55 359.06L45.55 359.05L45.55 359.05L28.95 342.18L28.94 342.18L28.94 342.18L-12.41 300.17L-11.56 299.3L30.65 342.18L30.65 342.18Z" id="b2Bdlsu1dd"></path><path d="M76.22 342.19L76.23 342.19L92.83 359.06L92.83 359.07L92.83 359.07L76.23 375.94L76.22 375.94L62.07 390.31L62.07 390.31L34.01 418.82L33.16 417.95L60.36 390.31L60.36 390.31L74.51 375.94L74.52 375.94L91.12 359.07L91.12 359.07L91.12 359.06L74.52 342.19L74.51 342.19L74.51 342.19L33.16 300.18L34.01 299.31L76.22 342.19L76.22 342.19Z" id="b3XWyGuaKj"></path><path d="M121.78 342.18L121.79 342.18L138.39 359.05L138.39 359.05L138.39 359.06L121.79 375.93L121.78 375.92L107.63 390.3L79.57 418.81L78.72 417.94L105.92 390.3L120.07 375.92L120.08 375.93L136.68 359.06L136.68 359.05L136.68 359.05L120.08 342.18L120.07 342.18L120.07 342.18L78.72 300.17L79.57 299.3L121.78 342.18L121.78 342.18Z" id="c4TeNW7dq"></path><path d="M167.35 342.18L167.35 342.18L183.96 359.05L183.95 359.05L183.96 359.06L167.35 375.93L167.35 375.92L153.2 390.3L125.14 418.81L124.28 417.94L151.49 390.3L165.64 375.92L165.64 375.93L182.25 359.06L182.25 359.05L182.25 359.05L165.64 342.18L165.64 342.18L165.64 342.18L124.28 300.17L125.14 299.3L167.35 342.18L167.35 342.18Z" id="a2xNZA7U"></path><path d="M212.91 342.18L212.92 342.18L229.52 359.05L229.52 359.05L229.52 359.06L212.92 375.93L212.91 375.92L198.76 390.3L170.7 418.81L169.85 417.94L197.05 390.3L211.2 375.92L211.21 375.93L227.81 359.06L227.81 359.05L227.81 359.05L211.21 342.18L211.2 342.18L211.2 342.18L169.85 300.17L170.7 299.3L212.91 342.18L212.91 342.18Z" id="a32nY1sKGW"></path><path d="M258.48 342.18L258.48 342.18L275.09 359.05L275.08 359.05L275.09 359.06L258.48 375.93L258.48 375.92L244.33 390.3L216.26 418.81L215.41 417.94L242.62 390.3L256.77 375.92L256.77 375.93L273.38 359.06L273.37 359.05L273.38 359.05L256.77 342.18L256.77 342.18L256.76 342.18L215.41 300.17L216.26 299.3L258.47 342.18L258.48 342.18Z" id="b1mS30gVHS"></path><path d="M304.05 342.18L304.05 342.18L320.66 359.05L320.66 359.05L320.66 359.06L304.05 375.93L304.05 375.92L289.9 390.3L261.84 418.81L260.98 417.94L288.19 390.3L302.34 375.92L302.34 375.93L318.95 359.06L318.95 359.05L318.95 359.05L302.34 342.18L302.34 342.18L302.34 342.18L260.98 300.17L261.84 299.3L304.05 342.18L304.05 342.18Z" id="d1G7LIrPlO"></path><path d="M367.88 316.2L387.28 335.91L387.29 335.91L387.29 335.91L387.29 335.91L410.07 359.05L410.06 359.05L410.07 359.06L387.29 382.19L387.29 382.19L367.88 401.91L367.88 401.91L329.39 441L306.62 417.87L364.51 359.05L306.62 300.24L329.39 277.1L367.88 316.2L367.88 316.2Z" id="agPKr4qF9"></path><path d="M413.44 316.2L432.85 335.91L432.85 335.91L432.85 335.91L432.86 335.91L455.63 359.05L455.63 359.05L455.63 359.06L432.86 382.19L432.85 382.19L413.44 401.91L413.44 401.91L374.96 441L352.18 417.87L410.07 359.05L352.18 300.24L374.96 277.1L413.44 316.2L413.44 316.2Z" id="f81tzwxIv"></path><path d="M459.01 316.21L478.42 335.92L478.42 335.93L478.42 335.93L478.43 335.92L501.2 359.06L501.2 359.06L501.2 359.07L478.43 382.2L478.42 382.2L459.01 401.92L459.01 401.92L420.53 441.01L397.75 417.88L455.64 359.06L397.75 300.25L420.53 277.11L459.01 316.21L459.01 316.21Z" id="j6CkUjsJj"></path><path d="M504.58 316.2L523.98 335.91L523.99 335.91L523.99 335.91L523.99 335.91L546.76 359.05L546.76 359.05L546.76 359.06L523.99 382.19L523.99 382.19L504.58 401.91L504.58 401.91L466.09 441L443.32 417.87L501.21 359.05L443.32 300.24L466.09 277.1L504.58 316.2L504.58 316.2Z" id="b4kg6D2Zt"></path><path d="M550.14 316.2L569.54 335.91L569.55 335.92L569.55 335.92L569.55 335.91L592.33 359.05L592.32 359.06L592.33 359.06L569.55 382.2L569.55 382.19L550.14 401.91L550.14 401.91L511.65 441.01L488.88 417.87L546.77 359.06L488.88 300.24L511.65 277.1L550.14 316.2L550.14 316.2Z" id="bqoLh23Ti"></path><path d="M595.7 316.19L615.1 335.9L615.11 335.91L615.11 335.91L615.11 335.9L637.89 359.04L637.89 359.05L637.89 359.05L615.11 382.19L615.11 382.18L595.7 401.9L595.7 401.9L557.22 441L534.44 417.86L592.33 359.05L534.44 300.23L557.22 277.09L595.7 316.19L595.7 316.19Z" id="f1GkTZ5HXx"></path><path d="M641.27 316.2L660.67 335.91L660.68 335.92L660.68 335.92L660.68 335.91L683.46 359.05L683.46 359.06L683.46 359.06L660.68 382.2L660.68 382.19L641.27 401.91L641.27 401.91L602.79 441.01L580.01 417.87L637.9 359.06L580.01 300.24L602.79 277.1L641.27 316.2L641.27 316.2Z" id="b1hUGhKf8F"></path><path d="M686.84 316.19L706.24 335.9L706.24 335.91L706.24 335.91L706.25 335.9L729.02 359.04L729.02 359.05L729.02 359.05L706.25 382.19L706.24 382.18L686.84 401.9L686.84 401.9L648.35 441L625.58 417.86L683.47 359.05L625.58 300.23L648.35 277.09L686.84 316.19L686.84 316.19Z" id="b5hGuvEY3e"></path><path d="M395.17 342.18L395.17 342.18L411.78 359.05L411.77 359.05L411.78 359.06L395.17 375.93L395.17 375.92L381.02 390.3L352.95 418.81L352.1 417.94L379.31 390.3L393.46 375.92L393.46 375.93L410.07 359.06L410.06 359.05L410.07 359.05L393.46 342.18L393.46 342.18L393.45 342.18L352.1 300.17L352.95 299.3L395.16 342.18L395.17 342.18Z" id="aNpVR5Hvz"></path><path d="M440.74 342.19L440.74 342.19L457.35 359.06L457.34 359.07L457.35 359.07L440.74 375.94L440.74 375.94L426.59 390.31L426.59 390.31L398.52 418.82L397.67 417.95L424.88 390.31L424.88 390.31L439.03 375.94L439.03 375.94L455.64 359.07L455.64 359.07L455.64 359.06L439.03 342.19L439.03 342.19L439.03 342.19L397.67 300.18L398.52 299.31L440.73 342.19L440.74 342.19Z" id="bH90kfngE"></path><path d="M486.3 342.18L486.3 342.18L502.91 359.05L502.9 359.05L502.91 359.06L486.3 375.93L486.3 375.92L472.15 390.3L444.09 418.81L443.23 417.94L470.44 390.3L484.59 375.92L484.59 375.93L501.2 359.06L501.2 359.05L501.2 359.05L484.59 342.18L484.59 342.18L484.59 342.18L443.23 300.17L444.09 299.3L486.3 342.18L486.3 342.18Z" id="b1UgwnJ7V"></path><path d="M531.86 342.18L531.87 342.18L548.47 359.05L548.47 359.05L548.47 359.06L531.87 375.93L531.86 375.92L517.71 390.3L489.65 418.81L488.8 417.94L516 390.3L530.15 375.92L530.16 375.93L546.76 359.06L546.76 359.05L546.76 359.05L530.16 342.18L530.15 342.18L530.15 342.18L488.8 300.17L489.65 299.3L531.86 342.18L531.86 342.18Z" id="dJDr9agen"></path><path d="M577.43 342.18L577.43 342.18L594.04 359.05L594.03 359.05L594.04 359.06L577.43 375.93L577.43 375.92L563.28 390.3L535.21 418.81L534.36 417.94L561.57 390.3L575.72 375.92L575.72 375.93L592.33 359.06L592.32 359.05L592.33 359.05L575.72 342.18L575.72 342.18L575.71 342.18L534.36 300.17L535.21 299.3L577.42 342.18L577.43 342.18Z" id="a19wlIIZ9Q"></path><path d="M622.99 342.18L623 342.18L639.6 359.05L639.6 359.05L639.6 359.06L623 375.93L622.99 375.92L608.84 390.3L580.78 418.81L579.92 417.94L607.13 390.3L621.28 375.92L621.29 375.93L637.89 359.06L637.89 359.05L637.89 359.05L621.29 342.18L621.28 342.18L621.28 342.18L579.92 300.17L580.78 299.3L622.99 342.18L622.99 342.18Z" id="d2G0ghlEHK"></path><path d="M668.56 342.18L668.57 342.18L685.17 359.05L685.17 359.05L685.17 359.06L668.57 375.93L668.56 375.92L654.41 390.3L626.35 418.81L625.5 417.94L652.7 390.3L666.85 375.92L666.86 375.93L683.46 359.06L683.46 359.05L683.46 359.05L666.86 342.18L666.85 342.18L666.85 342.18L625.5 300.17L626.35 299.3L668.56 342.18L668.56 342.18Z" id="b3rydl1e4r"></path><path d="M349.6 342.18L349.61 342.18L366.21 359.05L366.21 359.05L366.21 359.06L349.61 375.93L349.6 375.92L335.45 390.3L307.39 418.81L306.54 417.94L333.74 390.3L347.89 375.92L347.9 375.93L364.5 359.06L364.5 359.05L364.5 359.05L347.9 342.18L347.89 342.18L347.89 342.18L306.54 300.17L307.39 299.3L349.6 342.18L349.6 342.18Z" id="cEDuQ9Zeu"></path><path d="M-14.92 342.19L-14.92 342.19L1.69 359.06L1.69 359.06L1.69 359.06L-14.92 375.93L-14.92 375.93L-29.07 390.31L-57.13 418.81L-57.99 417.95L-30.78 390.31L-16.63 375.93L-16.63 375.93L-0.02 359.06L-0.02 359.06L-0.02 359.06L-16.63 342.19L-16.63 342.19L-16.63 342.19L-57.99 300.17L-57.13 299.3L-14.92 342.19L-14.92 342.19Z" id="heQL7xNuW"></path></defs><g><g><g><use xlink:href="#ddRw0cKEW" opacity="1" fill="#ffffff" fill-opacity="0.5"></use><g><use xlink:href="#ddRw0cKEW" opacity="1" fill-opacity="0" stroke="#213861" stroke-width="1" stroke-opacity="0"></use></g></g><g><use xlink:href="#bdmCLDEVj" opacity="1" fill="#ffffff" fill-opacity="0.2"></use><g><use xlink:href="#bdmCLDEVj" opacity="1" fill-opacity="0" stroke="#213861" stroke-width="1" stroke-opacity="0"></use></g></g><g><use xlink:href="#bPJoE4X8K" opacity="1" fill="#ffffff" fill-opacity="0.5"></use><g><use xlink:href="#bPJoE4X8K" opacity="1" fill-opacity="0" stroke="#213861" stroke-width="1" stroke-opacity="0"></use></g></g><g><use xlink:href="#aEI8d8B5l" opacity="1" fill="#ffffff" fill-opacity="0.2"></use><g><use xlink:href="#aEI8d8B5l" opacity="1" fill-opacity="0" stroke="#213861" stroke-width="1" stroke-opacity="0"></use></g></g><g><use xlink:href="#aQgYuYy5o" opacity="1" fill="#ffffff" fill-opacity="0.5"></use><g><use xlink:href="#aQgYuYy5o" opacity="1" fill-opacity="0" stroke="#213861" stroke-width="1" stroke-opacity="0"></use></g></g><g><use xlink:href="#a8dNWOuJC" opacity="1" fill="#ffffff" fill-opacity="0.2"></use><g><use xlink:href="#a8dNWOuJC" opacity="1" fill-opacity="0" stroke="#213861" stroke-width="1" stroke-opacity="0"></use></g></g><g><use xlink:href="#a3N1iqJa5" opacity="1" fill="#ffffff" fill-opacity="0.5"></use><g><use xlink:href="#a3N1iqJa5" opacity="1" fill-opacity="0" stroke="#213861" stroke-width="1" stroke-opacity="0"></use></g></g><g><use xlink:href="#c3WnMaS7Fl" opacity="1" fill="#ffffff" fill-opacity="0.2"></use><g><use xlink:href="#c3WnMaS7Fl" opacity="1" fill-opacity="0" stroke="#213861" stroke-width="1" stroke-opacity="0"></use></g></g><g><use xlink:href="#b2Bdlsu1dd" opacity="1" fill="#000000" fill-opacity="0.5"></use><g><use xlink:href="#b2Bdlsu1dd" opacity="1" fill-opacity="0" stroke="#213861" stroke-width="1" stroke-opacity="0"></use></g></g><g><use xlink:href="#b3XWyGuaKj" opacity="1" fill="#000000" fill-opacity="0.5"></use><g><use xlink:href="#b3XWyGuaKj" opacity="1" fill-opacity="0" stroke="#213861" stroke-width="1" stroke-opacity="0"></use></g></g><g><use xlink:href="#c4TeNW7dq" opacity="1" fill="#000000" fill-opacity="0.5"></use><g><use xlink:href="#c4TeNW7dq" opacity="1" fill-opacity="0" stroke="#213861" stroke-width="1" stroke-opacity="0"></use></g></g><g><use xlink:href="#a2xNZA7U" opacity="1" fill="#000000" fill-opacity="0.5"></use><g><use xlink:href="#a2xNZA7U" opacity="1" fill-opacity="0" stroke="#213861" stroke-width="1" stroke-opacity="0"></use></g></g><g><use xlink:href="#a32nY1sKGW" opacity="1" fill="#000000" fill-opacity="0.5"></use><g><use xlink:href="#a32nY1sKGW" opacity="1" fill-opacity="0" stroke="#213861" stroke-width="1" stroke-opacity="0"></use></g></g><g><use xlink:href="#b1mS30gVHS" opacity="1" fill="#000000" fill-opacity="0.5"></use><g><use xlink:href="#b1mS30gVHS" opacity="1" fill-opacity="0" stroke="#213861" stroke-width="1" stroke-opacity="0"></use></g></g><g><use xlink:href="#d1G7LIrPlO" opacity="1" fill="#000000" fill-opacity="0.5"></use><g><use xlink:href="#d1G7LIrPlO" opacity="1" fill-opacity="0" stroke="#213861" stroke-width="1" stroke-opacity="0"></use></g></g><g><use xlink:href="#agPKr4qF9" opacity="1" fill="#ffffff" fill-opacity="0.5"></use><g><use xlink:href="#agPKr4qF9" opacity="1" fill-opacity="0" stroke="#213861" stroke-width="1" stroke-opacity="0"></use></g></g><g><use xlink:href="#f81tzwxIv" opacity="1" fill="#ffffff" fill-opacity="0.2"></use><g><use xlink:href="#f81tzwxIv" opacity="1" fill-opacity="0" stroke="#213861" stroke-width="1" stroke-opacity="0"></use></g></g><g><use xlink:href="#j6CkUjsJj" opacity="1" fill="#ffffff" fill-opacity="0.5"></use><g><use xlink:href="#j6CkUjsJj" opacity="1" fill-opacity="0" stroke="#213861" stroke-width="1" stroke-opacity="0"></use></g></g><g><use xlink:href="#b4kg6D2Zt" opacity="1" fill="#ffffff" fill-opacity="0.2"></use><g><use xlink:href="#b4kg6D2Zt" opacity="1" fill-opacity="0" stroke="#213861" stroke-width="1" stroke-opacity="0"></use></g></g><g><use xlink:href="#bqoLh23Ti" opacity="1" fill="#ffffff" fill-opacity="0.5"></use><g><use xlink:href="#bqoLh23Ti" opacity="1" fill-opacity="0" stroke="#213861" stroke-width="1" stroke-opacity="0"></use></g></g><g><use xlink:href="#f1GkTZ5HXx" opacity="1" fill="#ffffff" fill-opacity="0.2"></use><g><use xlink:href="#f1GkTZ5HXx" opacity="1" fill-opacity="0" stroke="#213861" stroke-width="1" stroke-opacity="0"></use></g></g><g><use xlink:href="#b1hUGhKf8F" opacity="1" fill="#ffffff" fill-opacity="0.5"></use><g><use xlink:href="#b1hUGhKf8F" opacity="1" fill-opacity="0" stroke="#213861" stroke-width="1" stroke-opacity="0"></use></g></g><g><use xlink:href="#b5hGuvEY3e" opacity="1" fill="#ffffff" fill-opacity="0.2"></use><g><use xlink:href="#b5hGuvEY3e" opacity="1" fill-opacity="0" stroke="#213861" stroke-width="1" stroke-opacity="0"></use></g></g><g><use xlink:href="#aNpVR5Hvz" opacity="1" fill="#000000" fill-opacity="0.5"></use><g><use xlink:href="#aNpVR5Hvz" opacity="1" fill-opacity="0" stroke="#213861" stroke-width="1" stroke-opacity="0"></use></g></g><g><use xlink:href="#bH90kfngE" opacity="1" fill="#000000" fill-opacity="0.5"></use><g><use xlink:href="#bH90kfngE" opacity="1" fill-opacity="0" stroke="#213861" stroke-width="1" stroke-opacity="0"></use></g></g><g><use xlink:href="#b1UgwnJ7V" opacity="1" fill="#000000" fill-opacity="0.5"></use><g><use xlink:href="#b1UgwnJ7V" opacity="1" fill-opacity="0" stroke="#213861" stroke-width="1" stroke-opacity="0"></use></g></g><g><use xlink:href="#dJDr9agen" opacity="1" fill="#000000" fill-opacity="0.5"></use><g><use xlink:href="#dJDr9agen" opacity="1" fill-opacity="0" stroke="#213861" stroke-width="1" stroke-opacity="0"></use></g></g><g><use xlink:href="#a19wlIIZ9Q" opacity="1" fill="#000000" fill-opacity="0.5"></use><g><use xlink:href="#a19wlIIZ9Q" opacity="1" fill-opacity="0" stroke="#213861" stroke-width="1" stroke-opacity="0"></use></g></g><g><use xlink:href="#d2G0ghlEHK" opacity="1" fill="#000000" fill-opacity="0.5"></use><g><use xlink:href="#d2G0ghlEHK" opacity="1" fill-opacity="0" stroke="#213861" stroke-width="1" stroke-opacity="0"></use></g></g><g><use xlink:href="#b3rydl1e4r" opacity="1" fill="#000000" fill-opacity="0.5"></use><g><use xlink:href="#b3rydl1e4r" opacity="1" fill-opacity="0" stroke="#213861" stroke-width="1" stroke-opacity="0"></use></g></g><g><use xlink:href="#cEDuQ9Zeu" opacity="1" fill="#000000" fill-opacity="0.5"></use><g><use xlink:href="#cEDuQ9Zeu" opacity="1" fill-opacity="0" stroke="#213861" stroke-width="1" stroke-opacity="0"></use></g></g><g><use xlink:href="#heQL7xNuW" opacity="1" fill="#000000" fill-opacity="0.5"></use><g><use xlink:href="#heQL7xNuW" opacity="1" fill-opacity="0" stroke="#213861" stroke-width="1" stroke-opacity="0"></use></g></g></g></g></svg>