<?xml version="1.0" encoding="UTF-8" standalone="no"?>
<!DOCTYPE svg PUBLIC "-//W3C//DTD SVG 1.1//EN" "http://www.w3.org/Graphics/SVG/1.1/DTD/svg11.dtd">
<svg version="1.1" xmlns="http://www.w3.org/2000/svg" xmlns:xlink="http://www.w3.org/1999/xlink" preserveAspectRatio="xMidYMid meet" viewBox="0 0 640 640" width="640" height="640"><defs><path d="M-57.9 240.68L-31.02 267.97L-31.01 267.97L0.52 300.01L0.52 300.02L-31.01 332.04L-31.02 332.04L-57.9 359.35L-57.88 359.35L-79.69 381.5L-142.66 381.5L-142.71 381.45L-62.55 300.01L-142.71 218.58L-142.31 218.17L-80.03 218.17L-57.88 240.68L-57.9 240.68Z" id="glrdoj4rA"></path><path d="M2.89 300.01L2.89 300.02L-20.1 323.38L-20.11 323.36L-39.7 343.27L-77.32 381.5L-79.69 381.5L-42.07 343.27L-22.48 323.36L-22.46 323.38L0.52 300.02L0.52 300.01L-22.46 276.65L-22.48 276.65L-79.41 218.81L-77.04 218.81L-20.11 276.65L-20.1 276.65L-20.1 276.65L2.89 300.01Z" id="a3HluRIdo"></path><path d="M32.06 267.97L32.07 267.97L63.61 300.01L63.6 300.01L63.61 300.02L32.07 332.04L5.2 359.35L-16.6 381.49L-79.57 381.49L-79.62 381.45L0.53 300.01L-79.62 218.58L-79.28 218.23L-16.89 218.23L5.2 240.68L32.06 267.97Z" id="cvW87GhrQ"></path><path d="M68.28 240.73L95.15 268.02L95.16 268.02L126.69 300.06L126.69 300.07L95.16 332.1L95.15 332.1L68.28 359.4L68.29 359.4L46.48 381.55L-16.49 381.55L-16.54 381.5L63.62 300.06L-16.54 218.63L-16.14 218.23L46.14 218.23L68.29 240.73L68.28 240.73Z" id="aJHLqrW3W"></path><path d="M129.06 300.06L129.06 300.07L106.07 323.43L106.06 323.42L86.47 343.33L48.85 381.55L46.48 381.55L84.1 343.33L103.69 323.42L103.71 323.43L126.69 300.07L126.69 300.06L103.71 276.7L103.69 276.7L46.76 218.87L49.13 218.87L106.06 276.7L106.07 276.7L106.07 276.7L129.06 300.06Z" id="d33HnW8WU"></path><path d="M160.57 268.05L160.58 268.05L192.12 300.09L192.11 300.09L192.12 300.1L160.58 332.13L133.71 359.43L111.9 381.58L48.93 381.58L48.89 381.53L129.04 300.09L48.89 218.66L49.23 218.32L111.61 218.32L133.71 240.76L160.57 268.05Z" id="b38RWgL1eF"></path><path d="M171.51 276.75L194.49 300.1L194.49 300.12L171.51 323.47L171.49 323.47L151.9 343.37L114.28 381.59L111.92 381.59L149.53 343.37L169.12 323.47L169.14 323.47L192.12 300.12L192.12 300.1L169.14 276.75L169.12 276.75L111.87 218.58L112.11 218.33L113.99 218.33L171.49 276.75L171.51 276.75Z" id="j5QtZcwMN9"></path><path d="M43 276.66L65.98 300.02L65.98 300.03L43 323.39L42.98 323.39L23.39 343.29L-14.22 381.51L-16.59 381.51L21.02 343.29L40.62 323.39L40.63 323.39L63.61 300.03L63.61 300.02L40.63 276.66L40.62 276.66L-16.64 218.5L-16.39 218.25L-14.52 218.25L42.98 276.66L43 276.66Z" id="c6yWPQfb2"></path><path d="M-60.21 300.02L-83.21 323.38L-102.8 343.29L-139.86 380.93L-142.23 380.93L-105.16 343.29L-85.57 323.38L-62.58 300.02L-85.57 276.66L-142.84 218.48L-142.61 218.25L-140.69 218.25L-83.21 276.66L-60.21 300.02Z" id="asOOuDMy6"></path><path d="M199.17 240.77L226.05 268.06L226.06 268.06L257.59 300.1L257.59 300.11L226.06 332.14L226.05 332.14L199.17 359.44L199.19 359.44L177.38 381.59L114.41 381.59L114.36 381.54L194.52 300.1L114.36 218.67L114.76 218.27L177.04 218.27L199.19 240.77L199.17 240.77Z" id="c17CAjdAa2"></path><path d="M259.96 300.1L259.96 300.11L236.97 323.47L236.96 323.46L217.37 343.37L179.74 381.59L177.38 381.59L215 343.37L234.59 323.46L234.6 323.47L257.59 300.11L257.59 300.1L234.6 276.74L234.59 276.74L177.66 218.91L180.03 218.91L236.96 276.74L236.97 276.74L236.97 276.74L259.96 300.1Z" id="j35xSt1VTX"></path><path d="M289.13 268.06L289.14 268.06L320.68 300.1L320.67 300.1L320.68 300.11L289.14 332.14L262.27 359.44L240.46 381.59L177.5 381.59L177.45 381.54L257.6 300.1L177.45 218.67L177.79 218.33L240.17 218.33L262.27 240.77L289.13 268.06Z" id="byzOUTcUR"></path><path d="M325.34 240.83L352.22 268.12L352.23 268.12L383.76 300.15L383.76 300.17L352.23 332.19L352.22 332.19L325.34 359.5L325.36 359.5L303.55 381.65L240.58 381.65L240.53 381.59L320.69 300.15L240.53 218.73L240.93 218.32L303.21 218.32L325.36 240.83L325.34 240.83Z" id="l3gQ8E6nI"></path><path d="M386.13 300.15L386.13 300.17L363.14 323.53L363.13 323.51L343.54 343.42L305.92 381.65L303.55 381.65L341.17 343.42L360.76 323.51L360.78 323.53L383.76 300.17L383.76 300.15L360.78 276.8L360.76 276.8L303.83 218.96L306.2 218.96L363.13 276.8L363.14 276.8L363.14 276.8L386.13 300.15Z" id="n4j1Uu1epU"></path><path d="M415.3 268.12L415.31 268.12L446.85 300.15L446.84 300.15L446.85 300.17L415.31 332.19L388.44 359.5L366.64 381.64L303.67 381.64L303.62 381.59L383.77 300.15L303.62 218.73L303.96 218.38L366.35 218.38L388.44 240.83L415.3 268.12Z" id="aqNPXcYE4"></path><path d="M426.24 276.81L449.22 300.17L449.22 300.18L426.24 323.54L426.22 323.54L406.63 343.44L369.02 381.66L366.65 381.66L404.26 343.44L423.86 323.54L423.87 323.54L446.85 300.18L446.85 300.17L423.87 276.81L423.86 276.81L366.6 218.64L366.85 218.4L368.72 218.4L426.22 276.81L426.24 276.81Z" id="b2fil3obw"></path><path d="M300.07 276.76L323.05 300.11L323.05 300.13L300.07 323.48L300.05 323.48L280.46 343.38L242.85 381.6L240.48 381.6L278.09 343.38L297.69 323.48L297.7 323.48L320.68 300.13L320.68 300.11L297.7 276.76L297.69 276.76L240.43 218.59L240.68 218.34L242.55 218.34L300.05 276.76L300.07 276.76Z" id="cgAjIkFMW"></path><path d="M453.87 240.85L480.74 268.14L480.75 268.14L512.28 300.18L512.28 300.19L480.75 332.22L480.74 332.22L453.87 359.52L453.88 359.52L432.07 381.67L369.1 381.67L369.05 381.62L449.21 300.18L369.05 218.75L369.45 218.34L431.73 218.34L453.88 240.85L453.87 240.85Z" id="cfZ5PbMpv"></path><path d="M514.65 300.18L514.65 300.19L491.66 323.55L491.65 323.53L472.06 343.44L434.44 381.67L432.07 381.67L469.69 343.44L489.28 323.53L489.3 323.55L512.28 300.19L512.28 300.18L489.3 276.82L489.28 276.82L432.35 218.98L434.72 218.98L491.65 276.82L491.66 276.82L491.66 276.82L514.65 300.18Z" id="b3SiSc8Z7P"></path><path d="M543.82 268.14L543.83 268.14L575.37 300.18L575.36 300.18L575.37 300.19L543.83 332.22L516.96 359.52L495.16 381.66L432.19 381.66L432.14 381.62L512.29 300.18L432.14 218.75L432.48 218.4L494.87 218.4L516.96 240.85L543.82 268.14Z" id="dqXvqIArR"></path><path d="M580.04 240.9L606.91 268.19L606.92 268.19L638.45 300.23L638.45 300.25L606.92 332.27L606.91 332.27L580.04 359.57L580.05 359.57L558.24 381.72L495.27 381.72L495.22 381.67L575.38 300.23L495.22 218.81L495.62 218.4L557.9 218.4L580.05 240.9L580.04 240.9Z" id="a1t5cn5s9N"></path><path d="M640.82 300.23L640.82 300.25L617.83 323.6L617.82 323.59L598.23 343.5L560.61 381.72L558.25 381.72L595.86 343.5L615.45 323.59L615.47 323.6L638.45 300.25L638.45 300.23L615.47 276.87L615.45 276.87L558.53 219.04L560.89 219.04L617.82 276.87L617.83 276.87L617.83 276.87L640.82 300.23Z" id="aMta4tGH9"></path><path d="M672.33 268.22L672.34 268.22L703.88 300.26L703.87 300.26L703.88 300.27L672.34 332.3L645.47 359.6L623.66 381.75L560.69 381.75L560.65 381.7L640.8 300.26L560.65 218.83L560.99 218.49L623.37 218.49L645.47 240.93L672.33 268.22Z" id="bCk08KHEC"></path><path d="M683.27 276.92L706.25 300.27L706.25 300.29L683.27 323.65L683.25 323.65L663.66 343.54L626.04 381.76L623.68 381.76L661.29 343.54L680.88 323.65L680.9 323.65L703.88 300.29L703.88 300.27L680.9 276.92L680.88 276.92L623.63 218.75L623.88 218.5L625.75 218.5L683.25 276.92L683.27 276.92Z" id="b1uGyhUrI0"></path><path d="M554.76 276.83L577.74 300.19L577.74 300.2L554.76 323.56L554.74 323.56L535.15 343.46L497.54 381.68L495.17 381.68L532.79 343.46L552.38 323.56L552.39 323.56L575.37 300.2L575.37 300.19L552.39 276.83L552.38 276.83L495.13 218.67L495.37 218.42L497.24 218.42L554.74 276.83L554.76 276.83Z" id="g3q2LIX95P"></path><path d="M710.93 240.94L737.81 268.23L737.82 268.23L769.35 300.27L769.35 300.28L737.82 332.31L737.81 332.31L710.93 359.61L710.95 359.61L689.14 381.76L626.17 381.76L626.12 381.71L706.28 300.27L626.12 218.84L626.52 218.44L688.8 218.44L710.95 240.94L710.93 240.94Z" id="bzAznCx5"></path><path d="M771.72 300.27L771.72 300.28L748.73 323.64L748.72 323.63L729.13 343.54L691.51 381.76L689.14 381.76L726.76 343.54L746.35 323.63L746.37 323.64L769.35 300.28L769.35 300.27L746.37 276.91L746.35 276.91L689.42 219.08L691.79 219.08L748.72 276.91L748.73 276.91L748.73 276.91L771.72 300.27Z" id="c9xv5Wm2u"></path><path d="M800.89 268.23L800.9 268.23L832.44 300.27L832.43 300.27L832.44 300.28L800.9 332.31L774.03 359.61L752.23 381.76L689.26 381.76L689.21 381.71L769.36 300.27L689.21 218.84L689.55 218.5L751.94 218.5L774.03 240.94L800.89 268.23Z" id="b22hBlnM8z"></path><path d="M837.11 241L863.98 268.29L863.99 268.29L895.52 300.32L895.52 300.34L863.99 332.36L863.98 332.36L837.11 359.67L837.12 359.67L815.31 381.82L752.34 381.82L752.29 381.77L832.45 300.32L752.29 218.9L752.69 218.49L814.97 218.49L837.12 241L837.11 241Z" id="bFfauJECb"></path><path d="M897.89 300.32L897.89 300.34L874.9 323.7L874.89 323.68L855.3 343.59L817.68 381.82L815.31 381.82L852.93 343.59L872.52 323.68L872.54 323.7L895.52 300.34L895.52 300.32L872.54 276.97L872.52 276.97L815.59 219.13L817.96 219.13L874.89 276.97L874.9 276.97L874.9 276.97L897.89 300.32Z" id="do6JYH0KH"></path><path d="M927.06 268.29L927.07 268.29L958.61 300.32L958.6 300.32L958.61 300.34L927.07 332.36L900.2 359.67L878.4 381.81L815.43 381.81L815.38 381.77L895.53 300.32L815.38 218.9L815.72 218.55L878.11 218.55L900.2 241L927.06 268.29Z" id="b3EpLPoHPI"></path><path d="M938 276.98L960.98 300.34L960.98 300.35L938 323.71L937.98 323.71L918.39 343.61L880.78 381.83L878.41 381.83L916.03 343.61L935.62 323.71L935.63 323.71L958.61 300.35L958.61 300.34L935.63 276.98L935.62 276.98L878.37 218.82L878.61 218.57L880.48 218.57L937.98 276.98L938 276.98Z" id="g6EFtFY4IE"></path><path d="M811.83 276.93L834.81 300.28L834.81 300.3L811.83 323.66L811.81 323.66L792.22 343.55L754.61 381.77L752.24 381.77L789.85 343.55L809.45 323.66L809.46 323.66L832.44 300.3L832.44 300.28L809.46 276.93L809.45 276.93L752.19 218.76L752.44 218.51L754.31 218.51L811.81 276.93L811.83 276.93Z" id="i1UNAeovu"></path></defs><g><g><g><use xlink:href="#glrdoj4rA" opacity="1" fill="#ffffff" fill-opacity="0.5"></use><g><use xlink:href="#glrdoj4rA" opacity="1" fill-opacity="0" stroke="#000000" stroke-width="1" stroke-opacity="0"></use></g></g><g><use xlink:href="#a3HluRIdo" opacity="1" fill="#000000" fill-opacity="0.5"></use><g><use xlink:href="#a3HluRIdo" opacity="1" fill-opacity="0" stroke="#000000" stroke-width="1" stroke-opacity="0"></use></g></g><g><use xlink:href="#cvW87GhrQ" opacity="1" fill="#ffffff" fill-opacity="0.2"></use><g><use xlink:href="#cvW87GhrQ" opacity="1" fill-opacity="0" stroke="#000000" stroke-width="1" stroke-opacity="0"></use></g></g><g><use xlink:href="#aJHLqrW3W" opacity="1" fill="#ffffff" fill-opacity="0.5"></use><g><use xlink:href="#aJHLqrW3W" opacity="1" fill-opacity="0" stroke="#000000" stroke-width="1" stroke-opacity="0"></use></g></g><g><use xlink:href="#d33HnW8WU" opacity="1" fill="#000000" fill-opacity="0.5"></use><g><use xlink:href="#d33HnW8WU" opacity="1" fill-opacity="0" stroke="#000000" stroke-width="1" stroke-opacity="0"></use></g></g><g><use xlink:href="#b38RWgL1eF" opacity="1" fill="#ffffff" fill-opacity="0.2"></use><g><use xlink:href="#b38RWgL1eF" opacity="1" fill-opacity="0" stroke="#000000" stroke-width="1" stroke-opacity="0"></use></g></g><g><use xlink:href="#j5QtZcwMN9" opacity="1" fill="#000000" fill-opacity="0.5"></use><g><use xlink:href="#j5QtZcwMN9" opacity="1" fill-opacity="0" stroke="#000000" stroke-width="1" stroke-opacity="0"></use></g></g><g><use xlink:href="#c6yWPQfb2" opacity="1" fill="#000000" fill-opacity="0.5"></use><g><use xlink:href="#c6yWPQfb2" opacity="1" fill-opacity="0" stroke="#000000" stroke-width="1" stroke-opacity="0"></use></g></g><g><use xlink:href="#asOOuDMy6" opacity="1" fill="#000000" fill-opacity="0.5"></use><g><use xlink:href="#asOOuDMy6" opacity="1" fill-opacity="0" stroke="#000000" stroke-width="1" stroke-opacity="0"></use></g></g><g><use xlink:href="#c17CAjdAa2" opacity="1" fill="#ffffff" fill-opacity="0.5"></use><g><use xlink:href="#c17CAjdAa2" opacity="1" fill-opacity="0" stroke="#000000" stroke-width="1" stroke-opacity="0"></use></g></g><g><use xlink:href="#j35xSt1VTX" opacity="1" fill="#000000" fill-opacity="0.5"></use><g><use xlink:href="#j35xSt1VTX" opacity="1" fill-opacity="0" stroke="#000000" stroke-width="1" stroke-opacity="0"></use></g></g><g><use xlink:href="#byzOUTcUR" opacity="1" fill="#ffffff" fill-opacity="0.2"></use><g><use xlink:href="#byzOUTcUR" opacity="1" fill-opacity="0" stroke="#000000" stroke-width="1" stroke-opacity="0"></use></g></g><g><use xlink:href="#l3gQ8E6nI" opacity="1" fill="#ffffff" fill-opacity="0.5"></use><g><use xlink:href="#l3gQ8E6nI" opacity="1" fill-opacity="0" stroke="#000000" stroke-width="1" stroke-opacity="0"></use></g></g><g><use xlink:href="#n4j1Uu1epU" opacity="1" fill="#000000" fill-opacity="0.5"></use><g><use xlink:href="#n4j1Uu1epU" opacity="1" fill-opacity="0" stroke="#000000" stroke-width="1" stroke-opacity="0"></use></g></g><g><use xlink:href="#aqNPXcYE4" opacity="1" fill="#ffffff" fill-opacity="0.2"></use><g><use xlink:href="#aqNPXcYE4" opacity="1" fill-opacity="0" stroke="#000000" stroke-width="1" stroke-opacity="0"></use></g></g><g><use xlink:href="#b2fil3obw" opacity="1" fill="#000000" fill-opacity="0.5"></use><g><use xlink:href="#b2fil3obw" opacity="1" fill-opacity="0" stroke="#000000" stroke-width="1" stroke-opacity="0"></use></g></g><g><use xlink:href="#cgAjIkFMW" opacity="1" fill="#000000" fill-opacity="0.5"></use><g><use xlink:href="#cgAjIkFMW" opacity="1" fill-opacity="0" stroke="#000000" stroke-width="1" stroke-opacity="0"></use></g></g><g><use xlink:href="#cfZ5PbMpv" opacity="1" fill="#ffffff" fill-opacity="0.5"></use><g><use xlink:href="#cfZ5PbMpv" opacity="1" fill-opacity="0" stroke="#000000" stroke-width="1" stroke-opacity="0"></use></g></g><g><use xlink:href="#b3SiSc8Z7P" opacity="1" fill="#000000" fill-opacity="0.5"></use><g><use xlink:href="#b3SiSc8Z7P" opacity="1" fill-opacity="0" stroke="#000000" stroke-width="1" stroke-opacity="0"></use></g></g><g><use xlink:href="#dqXvqIArR" opacity="1" fill="#ffffff" fill-opacity="0.2"></use><g><use xlink:href="#dqXvqIArR" opacity="1" fill-opacity="0" stroke="#000000" stroke-width="1" stroke-opacity="0"></use></g></g><g><use xlink:href="#a1t5cn5s9N" opacity="1" fill="#ffffff" fill-opacity="0.5"></use><g><use xlink:href="#a1t5cn5s9N" opacity="1" fill-opacity="0" stroke="#000000" stroke-width="1" stroke-opacity="0"></use></g></g><g><use xlink:href="#aMta4tGH9" opacity="1" fill="#000000" fill-opacity="0.5"></use><g><use xlink:href="#aMta4tGH9" opacity="1" fill-opacity="0" stroke="#000000" stroke-width="1" stroke-opacity="0"></use></g></g><g><use xlink:href="#bCk08KHEC" opacity="1" fill="#ffffff" fill-opacity="0.2"></use><g><use xlink:href="#bCk08KHEC" opacity="1" fill-opacity="0" stroke="#000000" stroke-width="1" stroke-opacity="0"></use></g></g><g><use xlink:href="#b1uGyhUrI0" opacity="1" fill="#000000" fill-opacity="0.5"></use><g><use xlink:href="#b1uGyhUrI0" opacity="1" fill-opacity="0" stroke="#000000" stroke-width="1" stroke-opacity="0"></use></g></g><g><use xlink:href="#g3q2LIX95P" opacity="1" fill="#000000" fill-opacity="0.5"></use><g><use xlink:href="#g3q2LIX95P" opacity="1" fill-opacity="0" stroke="#000000" stroke-width="1" stroke-opacity="0"></use></g></g><g><use xlink:href="#bzAznCx5" opacity="1" fill="#ffffff" fill-opacity="0.5"></use><g><use xlink:href="#bzAznCx5" opacity="1" fill-opacity="0" stroke="#000000" stroke-width="1" stroke-opacity="0"></use></g></g><g><use xlink:href="#c9xv5Wm2u" opacity="1" fill="#000000" fill-opacity="0.5"></use><g><use xlink:href="#c9xv5Wm2u" opacity="1" fill-opacity="0" stroke="#000000" stroke-width="1" stroke-opacity="0"></use></g></g><g><use xlink:href="#b22hBlnM8z" opacity="1" fill="#ffffff" fill-opacity="0.2"></use><g><use xlink:href="#b22hBlnM8z" opacity="1" fill-opacity="0" stroke="#000000" stroke-width="1" stroke-opacity="0"></use></g></g><g><use xlink:href="#bFfauJECb" opacity="1" fill="#ffffff" fill-opacity="0.5"></use><g><use xlink:href="#bFfauJECb" opacity="1" fill-opacity="0" stroke="#000000" stroke-width="1" stroke-opacity="0"></use></g></g><g><use xlink:href="#do6JYH0KH" opacity="1" fill="#000000" fill-opacity="0.5"></use><g><use xlink:href="#do6JYH0KH" opacity="1" fill-opacity="0" stroke="#000000" stroke-width="1" stroke-opacity="0"></use></g></g><g><use xlink:href="#b3EpLPoHPI" opacity="1" fill="#ffffff" fill-opacity="0.2"></use><g><use xlink:href="#b3EpLPoHPI" opacity="1" fill-opacity="0" stroke="#000000" stroke-width="1" stroke-opacity="0"></use></g></g><g><use xlink:href="#g6EFtFY4IE" opacity="1" fill="#000000" fill-opacity="0.5"></use><g><use xlink:href="#g6EFtFY4IE" opacity="1" fill-opacity="0" stroke="#000000" stroke-width="1" stroke-opacity="0"></use></g></g><g><use xlink:href="#i1UNAeovu" opacity="1" fill="#000000" fill-opacity="0.5"></use><g><use xlink:href="#i1UNAeovu" opacity="1" fill-opacity="0" stroke="#000000" stroke-width="1" stroke-opacity="0"></use></g></g></g></g></svg>