<?xml version="1.0" encoding="UTF-8" standalone="no"?>
<!DOCTYPE svg PUBLIC "-//W3C//DTD SVG 1.1//EN" "http://www.w3.org/Graphics/SVG/1.1/DTD/svg11.dtd">
<svg version="1.1" xmlns="http://www.w3.org/2000/svg" xmlns:xlink="http://www.w3.org/1999/xlink" preserveAspectRatio="xMidYMid meet" viewBox="0 0 640 640" width="64" height="64"><defs><path d="M130.56 286.07L130.14 293L130 300L130.14 307L130.56 313.93L131.26 320.79L132.23 327.56L133.46 334.24L134.94 340.83L136.68 347.32L138.67 353.71L140.9 359.98L143.37 366.15L146.06 372.18L148.99 378.1L152.13 383.88L155.48 389.52L159.05 395.02L162.82 400.37L166.78 405.57L170.94 410.61L175.29 415.48L179.82 420.18L180.06 420.42L184.34 424.78L188.93 429.16L193.66 433.37L198.51 437.41L203.48 441.29L208.56 444.99L213.76 448.52L219.05 451.87L224.46 455.05L229.95 458.04L235.54 460.85L241.21 463.48L246.96 465.92L252.79 468.17L258.69 470.24L264.66 472.11L270.69 473.79L276.78 475.27L282.92 476.55L289.1 477.64L295.33 478.52L301.59 479.2L307.89 479.67L314.22 479.94L320.56 479.99L326.93 479.84L333.31 479.47L339.7 478.89L346.09 478.08L352.48 477.06L358.86 475.82L365.24 474.35L371.59 472.66L422.15 458.29L418.09 461.39L411.79 465.82L405.32 470.02L398.68 473.97L391.88 477.66L384.92 481.1L377.82 484.27L370.57 487.17L363.19 489.8L355.67 492.14L348.04 494.18L340.29 495.93L332.42 497.38L324.46 498.52L316.39 499.34L308.24 499.83L300 500L291.76 499.83L283.61 499.34L275.54 498.52L267.58 497.38L259.71 495.93L251.96 494.18L244.33 492.14L236.81 489.8L229.43 487.17L222.18 484.27L215.08 481.1L208.12 477.66L201.32 473.97L194.68 470.02L188.21 465.82L181.91 461.39L175.8 456.72L169.87 451.83L164.14 446.72L158.61 441.39L153.28 435.86L148.17 430.13L143.28 424.2L138.61 418.09L134.18 411.79L129.98 405.32L126.03 398.68L122.34 391.88L118.9 384.92L115.73 377.82L112.83 370.57L110.2 363.19L107.86 355.67L105.82 348.04L104.07 340.29L102.62 332.42L102.42 331.02L104.15 327.47L106.04 323.65L107.93 319.88L109.83 316.15L111.74 312.46L113.65 308.82L115.57 305.22L117.5 301.67L119.43 298.16L121.37 294.69L123.31 291.27L125.26 287.89L127.22 284.55L129.19 281.26L131.15 278.02L131.52 277.43L131.26 279.21L130.56 286.07ZM391.88 122.34L398.68 126.03L405.32 129.98L411.79 134.18L418.09 138.61L424.2 143.28L430.13 148.17L435.86 153.28L441.39 158.61L446.72 164.14L451.83 169.87L456.72 175.8L461.39 181.91L465.82 188.21L470.02 194.68L473.97 201.32L477.66 208.12L481.1 215.08L484.27 222.18L487.17 229.43L489.8 236.81L492.14 244.33L494.18 251.96L495.93 259.71L497.38 267.58L498.52 275.54L499.34 283.61L499.83 291.76L500 300L499.83 308.24L499.34 316.39L498.52 324.46L497.38 332.42L495.93 340.29L494.18 348.04L492.14 355.67L489.8 363.19L487.17 370.57L484.27 377.82L481.1 384.92L477.66 391.88L473.97 398.68L470.02 405.32L465.82 411.79L461.39 418.09L456.72 424.2L451.83 430.13L446.72 435.86L441.39 441.39L435.86 446.72L430.13 451.83L424.2 456.72L423.35 457.38L421.74 457.49L417.5 457.76L413.3 458.01L409.12 458.23L404.99 458.42L400.89 458.58L396.82 458.72L392.79 458.82L388.79 458.91L384.82 458.96L380.9 458.99L377 458.99L373.14 458.96L369.32 458.91L365.53 458.82L361.78 458.71L361.01 458.69L366.15 456.63L372.18 453.94L378.1 451.01L383.88 447.87L389.52 444.52L395.02 440.95L400.37 437.18L405.57 433.22L410.61 429.06L415.48 424.71L420.18 420.18L424.71 415.48L429.06 410.61L433.22 405.57L437.18 400.37L440.95 395.02L444.52 389.52L447.87 383.88L451.01 378.1L453.94 372.18L456.63 366.15L459.1 359.98L461.33 353.71L463.32 347.32L465.06 340.83L465.07 340.78L466.49 335.67L467.99 329.49L469.27 323.28L470.36 317.04L471.23 310.79L471.89 304.52L472.35 298.24L472.61 291.96L472.65 285.69L472.5 279.42L472.14 273.16L471.58 266.92L470.81 260.7L469.85 254.52L468.68 248.36L467.32 242.24L465.75 236.17L463.99 230.15L462.03 224.18L459.87 218.27L457.52 212.42L454.97 206.64L452.22 200.94L449.28 195.32L446.15 189.78L442.83 184.33L439.31 178.98L435.6 173.73L431.71 168.59L427.62 163.55L423.34 158.64L418.88 153.84L414.22 149.17L381.39 117.32L384.92 118.9L391.88 122.34ZM316.39 100.66L324.46 101.48L332.42 102.62L340.29 104.07L348.04 105.82L355.67 107.86L363.19 110.2L370.57 112.83L377.49 115.6L378.29 116.8L380.61 120.32L382.89 123.83L385.13 127.33L387.32 130.81L389.48 134.27L391.6 137.71L393.67 141.14L395.7 144.55L397.69 147.95L399.65 151.33L401.55 154.69L403.42 158.04L405.25 161.37L407.04 164.68L408.78 167.98L410.11 170.53L405.57 166.78L400.37 162.82L395.02 159.05L389.52 155.48L383.88 152.13L378.1 148.99L372.18 146.06L366.15 143.37L359.98 140.9L353.71 138.67L347.32 136.68L340.83 134.94L334.24 133.46L327.56 132.23L320.79 131.26L313.93 130.56L307 130.14L300 130L293 130.14L286.07 130.56L279.21 131.26L272.44 132.23L265.76 133.46L259.17 134.94L252.68 136.68L246.29 138.67L240.02 140.9L233.85 143.37L227.82 146.06L227.79 146.08L227.57 146.17L221.81 148.73L216.14 151.47L210.58 154.39L205.12 157.48L199.77 160.75L194.53 164.19L189.4 167.8L184.4 171.57L179.53 175.5L174.78 179.58L170.16 183.83L165.69 188.22L161.35 192.76L157.16 197.44L153.12 202.26L149.24 207.23L145.51 212.32L141.94 217.55L138.54 222.91L135.31 228.39L132.26 233.99L129.38 239.71L126.69 245.55L124.18 251.49L121.87 257.55L119.75 263.71L117.83 269.98L116.11 276.34L102.39 330.83L101.48 324.46L100.66 316.39L100.17 308.24L100 300L100.17 291.76L100.66 283.61L101.48 275.54L102.62 267.58L104.07 259.71L105.82 251.96L107.86 244.33L110.2 236.81L112.83 229.43L115.73 222.18L118.9 215.08L122.34 208.12L126.03 201.32L129.98 194.68L134.18 188.21L138.61 181.91L143.28 175.8L148.17 169.87L153.28 164.14L158.61 158.61L164.14 153.28L169.87 148.17L175.8 143.28L181.91 138.61L188.21 134.18L194.68 129.98L201.32 126.03L208.12 122.34L215.08 118.9L222.18 115.73L229.43 112.83L236.81 110.2L244.33 107.86L251.96 105.82L259.71 104.07L267.58 102.62L275.54 101.48L283.61 100.66L291.76 100.17L300 100L308.24 100.17L316.39 100.66Z" id="bV4FBdyd7"></path></defs><g><g><g><use xlink:href="#bV4FBdyd7" opacity="1" fill="#000000" fill-opacity="1"></use><g><use xlink:href="#bV4FBdyd7" opacity="1" fill-opacity="0" stroke="#c015b5" stroke-width="1" stroke-opacity="0"></use></g></g></g></g></svg>