<?xml version="1.0" encoding="UTF-8" standalone="no"?>
<!DOCTYPE svg PUBLIC "-//W3C//DTD SVG 1.1//EN" "http://www.w3.org/Graphics/SVG/1.1/DTD/svg11.dtd">
<svg version="1.1" xmlns="http://www.w3.org/2000/svg" xmlns:xlink="http://www.w3.org/1999/xlink" preserveAspectRatio="xMidYMid meet" viewBox="0 0 640 640" width="64" height="640"><defs><path d="M130 300L130.14 307L130.56 313.93L131.26 320.79L132.23 327.56L133.46 334.24L134.94 340.83L136.68 347.32L138.67 353.71L140.9 359.98L143.37 366.15L146.06 372.18L148.99 378.1L152.13 383.88L155.48 389.52L159.05 395.02L162.82 400.37L166.78 405.57L170.94 410.61L175.29 415.48L179.82 420.18L184.52 424.71L188.47 428.24L188.45 428.26L193.18 432.83L198.03 437.21L203 441.4L208.09 445.41L213.28 449.22L218.58 452.84L223.97 456.26L229.46 459.5L235.03 462.54L240.68 465.39L246.41 468.04L252.22 470.5L258.09 472.76L264.02 474.82L270 476.69L276.04 478.35L282.13 479.82L288.25 481.09L294.41 482.16L300.6 483.03L306.81 483.7L313.05 484.17L319.3 484.43L325.55 484.49L331.82 484.35L338.08 484L344.33 483.44L350.58 482.69L356.8 481.72L363.01 480.55L369.19 479.17L375.33 477.58L381.44 475.78L387.51 473.77L393.53 471.55L399.49 469.13L405.4 466.49L411.25 463.63L417.02 460.57L422.73 457.29L425.59 455.58L424.2 456.72L418.09 461.39L411.79 465.82L405.32 470.02L398.68 473.97L391.88 477.66L384.92 481.1L377.82 484.27L370.57 487.17L363.19 489.8L355.67 492.14L348.04 494.18L340.29 495.93L332.42 497.38L324.46 498.52L316.39 499.34L308.24 499.83L300 500L291.76 499.83L283.61 499.34L275.54 498.52L267.58 497.38L259.71 495.93L251.96 494.18L244.33 492.14L236.81 489.8L229.43 487.17L222.18 484.27L215.08 481.1L208.12 477.66L201.32 473.97L194.68 470.02L188.21 465.82L181.91 461.39L175.8 456.72L169.87 451.83L164.14 446.72L158.61 441.39L153.28 435.86L148.17 430.13L143.28 424.2L138.61 418.09L134.18 411.79L129.98 405.32L126.03 398.68L122.34 391.88L118.9 384.92L115.73 377.82L112.83 370.57L110.2 363.19L109.92 362.26L109.96 362.05L110.87 358.04L111.79 354.07L112.73 350.14L113.69 346.24L114.66 342.39L115.66 338.59L116.67 334.82L117.69 331.09L118.74 327.4L119.8 323.75L120.88 320.15L121.98 316.58L123.09 313.06L124.22 309.58L125.37 306.13L126.54 302.73L127.72 299.37L128.92 296.05L130.14 292.77L130.16 292.72L130.14 293L130 300ZM363.19 110.2L370.57 112.83L377.82 115.73L384.92 118.9L391.88 122.34L398.68 126.03L405.32 129.98L411.79 134.18L418.09 138.61L424.2 143.28L430.13 148.17L435.86 153.28L441.39 158.61L446.72 164.14L451.83 169.87L456.72 175.8L461.39 181.91L465.82 188.21L470.02 194.68L473.97 201.32L477.66 208.12L481.1 215.08L484.27 222.18L487.17 229.43L489.8 236.81L492.14 244.33L494.18 251.96L495.93 259.71L497.38 267.58L498.52 275.54L499.34 283.61L499.83 291.76L500 300L499.83 308.24L499.34 316.39L498.52 324.46L497.38 332.42L495.93 340.29L494.18 348.04L492.14 355.67L489.8 363.19L487.17 370.57L484.27 377.82L481.1 384.92L477.66 391.88L473.97 398.68L470.02 405.32L465.82 411.79L461.39 418.09L456.72 424.2L451.83 430.13L446.72 435.86L446.12 436.49L443.48 437.29L439.62 438.44L435.77 439.55L431.96 440.63L428.17 441.67L424.41 442.68L420.68 443.65L416.97 444.59L413.29 445.49L409.63 446.36L406.01 447.19L402.4 447.98L398.83 448.74L395.28 449.47L391.76 450.16L388.26 450.81L384.79 451.43L381.35 452.01L377.93 452.56L374.54 453.07L373.68 453.2L378.1 451.01L383.88 447.87L389.52 444.52L395.02 440.95L400.37 437.18L405.57 433.22L410.61 429.06L415.48 424.71L420.18 420.18L424.71 415.48L429.06 410.61L433.22 405.57L437.18 400.37L440.95 395.02L444.52 389.52L447.87 383.88L451.01 378.1L453.94 372.18L456.63 366.15L459.1 359.98L461.33 353.71L463.32 347.32L465.06 340.83L466.54 334.24L467.77 327.56L468.74 320.79L469.44 313.93L469.86 307L470 300.14L470.2 297.5L470.47 291.1L470.53 284.72L470.38 278.36L470.01 272.03L469.44 265.73L468.67 259.46L467.69 253.23L466.51 247.05L465.13 240.92L463.55 234.85L461.78 228.83L459.81 222.88L457.65 217L455.31 211.19L452.77 205.46L450.05 199.82L447.15 194.27L444.07 188.81L440.81 183.44L437.37 178.18L433.75 173.03L429.96 167.99L426.01 163.07L421.88 158.28L417.59 153.61L413.13 149.07L408.51 144.67L403.73 140.41L398.78 136.3L393.69 132.34L388.44 128.53L383.03 124.89L377.48 121.41L371.78 118.11L351.29 106.69L355.67 107.86L363.19 110.2ZM316.39 100.66L324.46 101.48L332.42 102.62L336.8 103.42L338.02 104.54L341.04 107.33L344.02 110.11L346.95 112.89L349.85 115.67L352.69 118.44L355.49 121.2L358.25 123.96L360.97 126.72L363.64 129.46L366.27 132.21L368.85 134.94L371.39 137.68L373.88 140.4L376.33 143.13L378.74 145.84L381.1 148.55L383.42 151.26L384.43 152.46L383.88 152.13L378.1 148.99L372.18 146.06L366.15 143.37L359.98 140.9L353.71 138.67L347.32 136.68L340.83 134.94L334.24 133.46L327.56 132.23L320.79 131.26L313.93 130.56L307 130.14L300 130L293 130.14L286.07 130.56L279.21 131.26L272.44 132.23L265.76 133.46L259.17 134.94L252.68 136.68L247.67 138.24L247.41 137.27L241.07 139.09L234.84 141.1L228.71 143.31L222.69 145.72L216.78 148.32L210.98 151.1L205.31 154.06L199.75 157.2L194.32 160.51L189.02 164L183.84 167.64L178.8 171.45L173.9 175.41L169.14 179.52L164.52 183.78L160.05 188.18L155.72 192.73L151.55 197.41L147.54 202.22L143.68 207.15L139.99 212.21L136.46 217.39L133.1 222.68L129.91 228.08L126.9 233.58L124.07 239.19L121.41 244.9L118.94 250.7L116.66 256.58L114.57 262.56L112.67 268.61L110.97 274.74L109.47 280.94L108.17 287.21L107.08 293.55L106.2 299.94L105.53 306.39L105.08 312.89L104.84 319.44L104.83 326.03L105.12 344.95L104.07 340.29L102.62 332.42L101.48 324.46L100.66 316.39L100.17 308.24L100 300L100.17 291.76L100.66 283.61L101.48 275.54L102.62 267.58L104.07 259.71L105.82 251.96L107.86 244.33L110.2 236.81L112.83 229.43L115.73 222.18L118.9 215.08L122.34 208.12L126.03 201.32L129.98 194.68L134.18 188.21L138.61 181.91L143.28 175.8L148.17 169.87L153.28 164.14L158.61 158.61L164.14 153.28L169.87 148.17L175.8 143.28L181.91 138.61L188.21 134.18L194.68 129.98L201.32 126.03L208.12 122.34L215.08 118.9L222.18 115.73L229.43 112.83L236.81 110.2L244.33 107.86L251.96 105.82L259.71 104.07L267.58 102.62L275.54 101.48L283.61 100.66L291.76 100.17L300 100L308.24 100.17L316.39 100.66Z" id="b2akJHzkb"></path></defs><g><g><g><use xlink:href="#b2akJHzkb" opacity="1" fill="#ffffff" fill-opacity="1"></use><g><use xlink:href="#b2akJHzkb" opacity="1" fill-opacity="0" stroke="#c015b5" stroke-width="1" stroke-opacity="0"></use></g></g></g></g></svg>