<?xml version="1.0" encoding="UTF-8" standalone="no"?>
<!DOCTYPE svg PUBLIC "-//W3C//DTD SVG 1.1//EN" "http://www.w3.org/Graphics/SVG/1.1/DTD/svg11.dtd">
<svg version="1.1" xmlns="http://www.w3.org/2000/svg" xmlns:xlink="http://www.w3.org/1999/xlink" preserveAspectRatio="xMidYMid meet" viewBox="0 0 640 640" width="32" height="32"><defs><path d="" id="brgQW5VX2"></path><path d="" id="bvC1by1d"></path><path d="M301.86 520C447.44 520 538.43 520 574.82 520C590.97 520 605.3 530.33 610.41 545.65C616.7 564.52 632.74 612.63 640.46 635.79C641.15 637.86 639.6 640 637.42 640C592.68 640 480.83 640 301.86 640" id="jv6IoBblO"></path><path d="M338.14 520C192.56 520 101.57 520 65.18 520C49.03 520 34.7 530.33 29.59 545.65C23.3 564.52 7.26 612.63 -0.46 635.79C-1.15 637.86 0.4 640 2.58 640C47.32 640 159.17 640 338.14 640" id="cZFan3Dz"></path></defs><g><g><g><g><use xlink:href="#brgQW5VX2" opacity="1" fill-opacity="0" stroke="#000000" stroke-width="1" stroke-opacity="1"></use></g></g><g><g><use xlink:href="#bvC1by1d" opacity="1" fill-opacity="0" stroke="#000000" stroke-width="1" stroke-opacity="1"></use></g></g><g><use xlink:href="#jv6IoBblO" opacity="1" fill="#ffffff" fill-opacity="1"></use><g><use xlink:href="#jv6IoBblO" opacity="1" fill-opacity="0" stroke="#000000" stroke-width="1" stroke-opacity="1"></use></g></g><g><use xlink:href="#cZFan3Dz" opacity="1" fill="#ffffff" fill-opacity="1"></use><g><use xlink:href="#cZFan3Dz" opacity="1" fill-opacity="0" stroke="#000000" stroke-width="1" stroke-opacity="1"></use></g></g></g></g></svg>