<?xml version="1.0" encoding="UTF-8" standalone="no"?>
<!DOCTYPE svg PUBLIC "-//W3C//DTD SVG 1.1//EN" "http://www.w3.org/Graphics/SVG/1.1/DTD/svg11.dtd">
<svg version="1.1" xmlns="http://www.w3.org/2000/svg" xmlns:xlink="http://www.w3.org/1999/xlink" preserveAspectRatio="xMidYMid meet" viewBox="0 0 640 640" width="32" height="32"><defs><path d="" id="brgQW5VX2"></path><path d="" id="bvC1by1d"></path><path d="M302.59 570C448.18 570 539.17 570 575.56 570C592.28 570 607.71 578.96 616.01 593.47C621.32 602.78 632.83 622.92 640.39 636.15C641.37 637.86 640.14 640 638.16 640C593.42 640 481.56 640 302.59 640" id="arU2PdwBW"></path><path d="M338.14 570C192.56 570 101.57 570 65.18 570C48.46 570 33.02 578.96 24.73 593.47C19.41 602.78 7.9 622.92 0.34 636.15C-0.64 637.86 0.6 640 2.58 640C47.32 640 159.17 640 338.14 640" id="f2b3XPAdxc"></path></defs><g><g><g><g><use xlink:href="#brgQW5VX2" opacity="1" fill-opacity="0" stroke="#000000" stroke-width="1" stroke-opacity="1"></use></g></g><g><g><use xlink:href="#bvC1by1d" opacity="1" fill-opacity="0" stroke="#000000" stroke-width="1" stroke-opacity="1"></use></g></g><g><use xlink:href="#arU2PdwBW" opacity="1" fill="#ffffff" fill-opacity="1"></use><g><use xlink:href="#arU2PdwBW" opacity="1" fill-opacity="0" stroke="#000000" stroke-width="1" stroke-opacity="1"></use></g></g><g><use xlink:href="#f2b3XPAdxc" opacity="1" fill="#ffffff" fill-opacity="1"></use><g><use xlink:href="#f2b3XPAdxc" opacity="1" fill-opacity="0" stroke="#000000" stroke-width="1" stroke-opacity="1"></use></g></g></g></g></svg>