<?xml version="1.0" encoding="UTF-8" standalone="no"?>
<!DOCTYPE svg PUBLIC "-//W3C//DTD SVG 1.1//EN" "http://www.w3.org/Graphics/SVG/1.1/DTD/svg11.dtd">
<svg version="1.1" xmlns="http://www.w3.org/2000/svg" xmlns:xlink="http://www.w3.org/1999/xlink" preserveAspectRatio="xMidYMid meet" viewBox="0 0 640 640" width="64" height="64"><defs><path d="M301.09 25.39L306.97 31.79L312.65 38.32L318.12 44.99L323.38 51.79L328.44 58.72L333.29 65.76L337.93 72.92L342.36 80.18L346.58 87.56L350.59 95.03L354.38 102.6L357.96 110.26L361.33 118.01L364.47 125.83L367.4 133.74L370.11 141.72L372.6 149.76L374.87 157.86L375.8 161.6L379.12 161.17L382.67 160.64L386.21 160.04L389.74 159.38L393.25 158.64L396.73 157.83L400.2 156.96L403.66 156.02L407.08 155.02L410.49 153.94L413.88 152.81L417.24 151.6L420.57 150.33L423.88 149L427.17 147.6L430.42 146.14L433.65 144.61L436.85 143.03L440.02 141.37L443.15 139.66L446.26 137.89L449.33 136.05L452.36 134.15L455.37 132.19L458.33 130.17L461.26 128.09L464.15 125.95L467 123.76L469.81 121.5L472.58 119.19L475.3 116.81L477.99 114.38L480.63 111.89L483.22 109.35L529.65 62.92L529.65 72.74L529.53 81.46L529.16 90.14L528.55 98.77L527.7 107.36L526.62 115.89L525.3 124.36L523.75 132.77L521.97 141.12L519.96 149.39L517.73 157.58L515.28 165.7L512.61 173.74L509.73 181.69L506.63 189.54L503.32 197.3L499.8 204.96L496.07 212.52L492.15 219.96L488.02 227.3L483.69 234.52L479.17 241.62L474.46 248.59L472.32 251.56L474.7 252.69L477.96 254.15L481.24 255.55L484.56 256.88L487.89 258.15L491.25 259.36L494.64 260.49L498.04 261.57L501.47 262.57L504.92 263.51L508.39 264.38L511.88 265.19L515.39 265.93L518.91 266.59L522.45 267.19L526.01 267.72L529.58 268.19L533.16 268.58L536.76 268.9L540.36 269.15L543.98 269.33L547.61 269.44L551.24 269.47L616.9 269.47L609.96 276.41L603.71 282.49L597.31 288.37L590.77 294.05L584.1 299.52L577.3 304.78L570.38 309.84L563.33 314.69L556.18 319.33L548.91 323.76L541.53 327.98L534.06 331.99L526.49 335.78L518.83 339.36L511.09 342.73L503.26 345.87L495.35 348.8L487.38 351.51L479.33 354L471.23 356.27L464.74 357.89L465.23 359.25L466.5 362.59L467.83 365.9L469.23 369.18L470.69 372.44L472.22 375.67L473.81 378.86L475.46 382.03L477.17 385.17L478.95 388.27L480.78 391.34L482.68 394.38L484.64 397.38L486.66 400.34L488.74 403.27L490.88 406.16L493.07 409.01L495.33 411.82L497.65 414.59L500.02 417.32L502.45 420L504.94 422.64L507.48 425.24L553.91 471.66L544.1 471.66L535.37 471.54L526.69 471.17L518.06 470.57L509.47 469.72L500.94 468.63L492.47 467.31L484.06 465.76L475.72 463.98L467.44 461.98L459.25 459.75L451.13 457.3L443.09 454.63L435.15 451.74L427.29 448.64L419.53 445.33L411.87 441.81L404.31 438.09L396.87 434.16L389.53 430.03L385.83 427.81L385.53 428.28L383.63 431.32L381.79 434.39L380.02 437.49L378.3 440.63L376.65 443.79L375.06 446.99L373.54 450.22L372.08 453.48L370.68 456.76L369.34 460.07L368.08 463.41L366.87 466.77L365.73 470.15L364.66 473.56L363.65 476.99L362.72 480.44L361.84 483.91L361.04 487.4L360.3 490.9L359.63 494.43L359.03 497.97L358.5 501.52L358.04 505.09L357.65 508.68L357.33 512.27L357.08 515.88L356.9 519.49L356.79 523.12L356.75 526.75L356.75 592.41L349.82 585.47L343.73 579.22L337.86 572.82L332.18 566.29L326.71 559.61L321.45 552.82L316.39 545.89L311.54 538.85L306.9 531.69L302.47 524.42L298.25 517.05L294.24 509.58L290.44 502.01L286.87 494.35L283.5 486.6L280.36 478.77L277.43 470.87L274.72 462.89L272.23 454.85L269.96 446.74L269.02 443L265.71 443.43L262.15 443.96L258.61 444.56L255.09 445.23L251.58 445.97L248.09 446.77L244.62 447.65L241.17 448.58L237.74 449.59L234.34 450.66L230.95 451.8L227.59 453.01L224.25 454.27L220.94 455.61L217.66 457.01L214.4 458.47L211.18 459.99L207.98 461.58L204.81 463.23L201.67 464.95L198.57 466.72L195.5 468.56L192.46 470.46L189.46 472.42L186.5 474.43L183.57 476.51L180.68 478.65L177.83 480.85L175.02 483.11L172.25 485.42L169.52 487.79L166.84 490.23L164.2 492.71L161.6 495.26L115.18 541.68L115.18 531.87L115.3 523.15L115.67 514.47L116.28 505.83L117.12 497.25L118.21 488.72L119.53 480.25L121.08 471.84L122.86 463.49L124.87 455.22L127.1 447.02L129.55 438.9L132.22 430.87L135.1 422.92L138.2 415.07L141.51 407.31L145.03 399.65L148.75 392.09L152.68 384.64L156.81 377.31L161.14 370.09L165.66 362.99L170.37 356.02L172.51 353.04L170.12 351.92L166.87 350.46L163.58 349.06L160.27 347.72L156.94 346.45L153.58 345.25L150.19 344.11L146.78 343.04L143.35 342.03L139.9 341.1L136.43 340.22L132.94 339.42L129.44 338.68L125.91 338.01L122.37 337.41L118.82 336.88L115.25 336.42L111.67 336.03L108.07 335.71L104.46 335.46L100.85 335.28L97.22 335.17L93.59 335.13L27.93 335.13L34.87 328.2L41.12 322.11L47.52 316.24L54.06 310.56L60.73 305.09L67.53 299.83L74.45 294.77L81.49 289.92L88.65 285.28L95.92 280.85L103.29 276.63L110.77 272.62L118.34 268.82L126 265.25L133.74 261.88L141.57 258.74L149.47 255.81L157.45 253.1L165.49 250.61L173.6 248.34L180.09 246.72L179.6 245.36L178.33 242.02L177 238.71L175.6 235.43L174.14 232.17L172.61 228.94L171.02 225.74L169.37 222.58L167.66 219.44L165.88 216.34L164.05 213.26L162.15 210.23L160.19 207.23L158.17 204.26L156.09 201.34L153.95 198.45L151.75 195.6L149.5 192.79L147.18 190.02L144.81 187.29L142.38 184.61L139.89 181.97L137.35 179.37L90.92 132.94L100.73 132.94L109.45 133.06L118.14 133.43L126.77 134.04L135.36 134.89L143.89 135.98L152.36 137.29L160.77 138.85L169.11 140.62L177.38 142.63L185.58 144.86L193.7 147.31L201.73 149.98L209.68 152.87L217.54 155.97L225.3 159.28L232.96 162.79L240.51 166.52L247.96 170.45L255.3 174.57L259 176.79L259.3 176.33L261.2 173.29L263.04 170.22L264.81 167.12L266.53 163.98L268.18 160.81L269.76 157.62L271.29 154.39L272.75 151.13L274.15 147.85L275.48 144.54L276.75 141.2L277.96 137.84L279.09 134.46L280.17 131.05L281.17 127.62L282.11 124.17L282.98 120.7L283.79 117.21L284.53 113.7L285.19 110.18L285.79 106.64L286.33 103.08L286.79 99.51L287.18 95.93L287.5 92.34L287.75 88.73L287.93 85.11L288.04 81.49L288.07 77.85L288.07 12.19L295.01 19.13L301.09 25.39Z" id="aJ2Rt1p3j"></path></defs><g><g><g><use xlink:href="#aJ2Rt1p3j" opacity="1" fill="#ffffff" fill-opacity="1"></use><g><use xlink:href="#aJ2Rt1p3j" opacity="1" fill-opacity="0" stroke="#74b957" stroke-width="1" stroke-opacity="0"></use></g></g></g></g></svg>