<?xml version="1.0" encoding="UTF-8" standalone="no"?>
<!DOCTYPE svg PUBLIC "-//W3C//DTD SVG 1.1//EN" "http://www.w3.org/Graphics/SVG/1.1/DTD/svg11.dtd">
<svg version="1.1" xmlns="http://www.w3.org/2000/svg" xmlns:xlink="http://www.w3.org/1999/xlink" preserveAspectRatio="xMidYMid meet" viewBox="0 0 640 640" width="640" height="640"><defs><path d="M320 640C143.39 640 0 496.61 0 320C0 143.39 143.39 0 320 0C496.61 0 640 143.39 640 320C640 496.61 496.61 640 320 640Z" id="b2Lyapr8qL"></path><path d="M320 640C143.39 640 0 496.61 0 320C0 143.39 143.39 0 320 0C496.61 0 640 143.39 640 320C640 496.61 496.61 640 320 640Z" id="dnXhXOl69"></path><path d="M320 619.37C154.78 619.37 20.63 485.22 20.63 320C20.63 154.78 154.78 20.63 320 20.63C485.22 20.63 619.37 154.78 619.37 320C619.37 485.22 485.22 619.37 320 619.37Z" id="a6XIfG8UzT"></path><path d="M320 619.37C154.78 619.37 20.63 485.22 20.63 320C20.63 154.78 154.78 20.63 320 20.63C485.22 20.63 619.37 154.78 619.37 320C619.37 485.22 485.22 619.37 320 619.37Z" id="b1hgOQmwFT"></path><path d="M386.67 162.86L320 162.86L253.33 162.86L286.66 96.19L320 29.52L353.33 96.19L386.67 162.86Z" id="e19ylTY5cK"></path><path d="M386.67 162.86L320 162.86L253.33 162.86L286.66 96.19L320 29.52L353.33 96.19L386.67 162.86Z" id="ashbohQzC"></path><path d="M168.57 253.33L168.57 320L168.57 386.67L101.9 353.34L35.24 320L101.9 286.67L168.57 253.33Z" id="b23ov41L07"></path><path d="M168.57 253.33L168.57 320L168.57 386.67L101.9 353.34L35.24 320L101.9 286.67L168.57 253.33Z" id="c2jj7Ec6Dk"></path><path d="M253.33 476.51L320 476.51L386.67 476.51L353.34 543.17L320 609.84L286.67 543.17L253.33 476.51Z" id="a1tuAEyrft"></path><path d="M253.33 476.51L320 476.51L386.67 476.51L353.34 543.17L320 609.84L286.67 543.17L253.33 476.51Z" id="cS00N29Wx"></path><path d="M472.7 386.67L472.7 320L472.7 253.33L539.37 286.66L606.03 320L539.37 353.33L472.7 386.67Z" id="c8spCTsWZ"></path><path d="M520.79 96.19L119.21 543.17" id="j3EWymmDz"></path><path d="M529.21 543.17L119.21 89.84" id="b8J59ixDN"></path><path d="M253.33 476.51L320 476.51L386.67 476.51L353.34 543.18L320 609.84L286.67 543.18L253.33 476.51Z" id="l2hjy4Ygpv"></path></defs><g><g><g><use xlink:href="#b2Lyapr8qL" opacity="1" fill="#171829" fill-opacity="1"></use><g><use xlink:href="#b2Lyapr8qL" opacity="1" fill-opacity="0" stroke="#000000" stroke-width="1" stroke-opacity="0"></use></g></g><g><use xlink:href="#dnXhXOl69" opacity="1" fill="#000000" fill-opacity="0"></use><g><use xlink:href="#dnXhXOl69" opacity="1" fill-opacity="0" stroke="#000000" stroke-width="1" stroke-opacity="0"></use></g></g><g><use xlink:href="#a6XIfG8UzT" opacity="1" fill="#ffffff" fill-opacity="1"></use><g><use xlink:href="#a6XIfG8UzT" opacity="1" fill-opacity="0" stroke="#000000" stroke-width="1" stroke-opacity="0"></use></g></g><g><use xlink:href="#b1hgOQmwFT" opacity="1" fill="#000000" fill-opacity="0"></use><g><use xlink:href="#b1hgOQmwFT" opacity="1" fill-opacity="0" stroke="#000000" stroke-width="1" stroke-opacity="0"></use></g></g><g><use xlink:href="#e19ylTY5cK" opacity="1" fill="#000000" fill-opacity="1"></use><g><use xlink:href="#e19ylTY5cK" opacity="1" fill-opacity="0" stroke="#000000" stroke-width="1" stroke-opacity="0"></use></g></g><g><use xlink:href="#ashbohQzC" opacity="1" fill="#000000" fill-opacity="0"></use><g><use xlink:href="#ashbohQzC" opacity="1" fill-opacity="0" stroke="#000000" stroke-width="1" stroke-opacity="0"></use></g></g><g><use xlink:href="#b23ov41L07" opacity="1" fill="#000000" fill-opacity="1"></use><g><use xlink:href="#b23ov41L07" opacity="1" fill-opacity="0" stroke="#000000" stroke-width="1" stroke-opacity="0"></use></g></g><g><use xlink:href="#c2jj7Ec6Dk" opacity="1" fill="#000000" fill-opacity="0"></use><g><use xlink:href="#c2jj7Ec6Dk" opacity="1" fill-opacity="0" stroke="#000000" stroke-width="1" stroke-opacity="0"></use></g></g><g><use xlink:href="#a1tuAEyrft" opacity="1" fill="#000000" fill-opacity="1"></use><g><use xlink:href="#a1tuAEyrft" opacity="1" fill-opacity="0" stroke="#000000" stroke-width="1" stroke-opacity="0"></use></g></g><g><use xlink:href="#cS00N29Wx" opacity="1" fill="#000000" fill-opacity="0"></use><g><use xlink:href="#cS00N29Wx" opacity="1" fill-opacity="0" stroke="#000000" stroke-width="1" stroke-opacity="0"></use></g></g><g><use xlink:href="#c8spCTsWZ" opacity="1" fill="#000000" fill-opacity="1"></use><g><use xlink:href="#c8spCTsWZ" opacity="1" fill-opacity="0" stroke="#000000" stroke-width="1" stroke-opacity="0"></use></g></g><g><use xlink:href="#j3EWymmDz" opacity="1" fill="#000000" fill-opacity="0"></use><g><use xlink:href="#j3EWymmDz" opacity="1" fill-opacity="0" stroke="#000000" stroke-width="10" stroke-opacity="1"></use></g></g><g><use xlink:href="#b8J59ixDN" opacity="1" fill="#000000" fill-opacity="0"></use><g><use xlink:href="#b8J59ixDN" opacity="1" fill-opacity="0" stroke="#000000" stroke-width="10" stroke-opacity="1"></use></g></g><g><use xlink:href="#l2hjy4Ygpv" opacity="1" fill="#ffa800" fill-opacity="1"></use><g><use xlink:href="#l2hjy4Ygpv" opacity="1" fill-opacity="0" stroke="#000000" stroke-width="1" stroke-opacity="0"></use></g></g></g></g></svg>