<?xml version="1.0" encoding="UTF-8" standalone="no"?>
<!DOCTYPE svg PUBLIC "-//W3C//DTD SVG 1.1//EN" "http://www.w3.org/Graphics/SVG/1.1/DTD/svg11.dtd">
<svg version="1.1" xmlns="http://www.w3.org/2000/svg" xmlns:xlink="http://www.w3.org/1999/xlink" preserveAspectRatio="xMidYMid meet" viewBox="0 0 640 640" width="64" height="64"><defs><path d="M320 640C143.39 640 0 496.61 0 320C0 143.39 143.39 0 320 0C496.61 0 640 143.39 640 320C640 496.61 496.61 640 320 640Z" id="bbNSOVSPt"></path><path d="M320 640C143.39 640 0 496.61 0 320C0 143.39 143.39 0 320 0C496.61 0 640 143.39 640 320C640 496.61 496.61 640 320 640Z" id="a8GoIsWye"></path><path d="M320 619.37C154.78 619.37 20.63 485.22 20.63 320C20.63 154.78 154.78 20.63 320 20.63C485.22 20.63 619.37 154.78 619.37 320C619.37 485.22 485.22 619.37 320 619.37Z" id="a1A9ggHMtM"></path><path d="M320 619.37C154.78 619.37 20.63 485.22 20.63 320C20.63 154.78 154.78 20.63 320 20.63C485.22 20.63 619.37 154.78 619.37 320C619.37 485.22 485.22 619.37 320 619.37Z" id="f1eBMb3ztE"></path><path d="M386.67 162.86L320 162.86L253.33 162.86L286.66 96.19L320 29.52L353.33 96.19L386.67 162.86Z" id="b2KAoIWivb"></path><path d="M386.67 162.86L320 162.86L253.33 162.86L286.66 96.19L320 29.52L353.33 96.19L386.67 162.86Z" id="b1ju4SDf6l"></path><path d="M168.57 253.33L168.57 320L168.57 386.67L101.9 353.34L35.24 320L101.9 286.67L168.57 253.33Z" id="h1ptpqteKe"></path><path d="M168.57 253.33L168.57 320L168.57 386.67L101.9 353.34L35.24 320L101.9 286.67L168.57 253.33Z" id="csLxEVF5m"></path><path d="M253.33 476.51L320 476.51L386.67 476.51L353.34 543.17L320 609.84L286.67 543.17L253.33 476.51Z" id="a2EfBMWSm1"></path><path d="M253.33 476.51L320 476.51L386.67 476.51L353.34 543.17L320 609.84L286.67 543.17L253.33 476.51Z" id="a2Xw7ED7L"></path><path d="M472.7 383.18L472.7 316.51L472.7 249.84L539.37 283.17L606.03 316.51L539.37 349.84L472.7 383.18Z" id="cVOSDPTXA"></path><path d="M520.79 96.19L119.21 543.17" id="a1G6sLBsP4"></path><path d="M529.21 543.17L119.21 89.84" id="c3GUDDjVU"></path></defs><g><g><g><use xlink:href="#bbNSOVSPt" opacity="1" fill="#171829" fill-opacity="1"></use><g><use xlink:href="#bbNSOVSPt" opacity="1" fill-opacity="0" stroke="#000000" stroke-width="1" stroke-opacity="0"></use></g></g><g><use xlink:href="#a8GoIsWye" opacity="1" fill="#000000" fill-opacity="0"></use><g><use xlink:href="#a8GoIsWye" opacity="1" fill-opacity="0" stroke="#000000" stroke-width="1" stroke-opacity="0"></use></g></g><g><use xlink:href="#a1A9ggHMtM" opacity="1" fill="#ffffff" fill-opacity="1"></use><g><use xlink:href="#a1A9ggHMtM" opacity="1" fill-opacity="0" stroke="#000000" stroke-width="1" stroke-opacity="0"></use></g></g><g><use xlink:href="#f1eBMb3ztE" opacity="1" fill="#000000" fill-opacity="0"></use><g><use xlink:href="#f1eBMb3ztE" opacity="1" fill-opacity="0" stroke="#000000" stroke-width="1" stroke-opacity="0"></use></g></g><g><use xlink:href="#b2KAoIWivb" opacity="1" fill="#000000" fill-opacity="1"></use><g><use xlink:href="#b2KAoIWivb" opacity="1" fill-opacity="0" stroke="#000000" stroke-width="1" stroke-opacity="0"></use></g></g><g><use xlink:href="#b1ju4SDf6l" opacity="1" fill="#000000" fill-opacity="0"></use><g><use xlink:href="#b1ju4SDf6l" opacity="1" fill-opacity="0" stroke="#000000" stroke-width="1" stroke-opacity="0"></use></g></g><g><use xlink:href="#h1ptpqteKe" opacity="1" fill="#000000" fill-opacity="1"></use><g><use xlink:href="#h1ptpqteKe" opacity="1" fill-opacity="0" stroke="#000000" stroke-width="1" stroke-opacity="0"></use></g></g><g><use xlink:href="#csLxEVF5m" opacity="1" fill="#000000" fill-opacity="0"></use><g><use xlink:href="#csLxEVF5m" opacity="1" fill-opacity="0" stroke="#000000" stroke-width="1" stroke-opacity="0"></use></g></g><g><use xlink:href="#a2EfBMWSm1" opacity="1" fill="#000000" fill-opacity="1"></use><g><use xlink:href="#a2EfBMWSm1" opacity="1" fill-opacity="0" stroke="#000000" stroke-width="1" stroke-opacity="0"></use></g></g><g><use xlink:href="#a2Xw7ED7L" opacity="1" fill="#000000" fill-opacity="0"></use><g><use xlink:href="#a2Xw7ED7L" opacity="1" fill-opacity="0" stroke="#000000" stroke-width="1" stroke-opacity="0"></use></g></g><g><use xlink:href="#cVOSDPTXA" opacity="1" fill="#ffa800" fill-opacity="1"></use><g><use xlink:href="#cVOSDPTXA" opacity="1" fill-opacity="0" stroke="#000000" stroke-width="1" stroke-opacity="0"></use></g></g><g><use xlink:href="#a1G6sLBsP4" opacity="1" fill="#000000" fill-opacity="0"></use><g><use xlink:href="#a1G6sLBsP4" opacity="1" fill-opacity="0" stroke="#000000" stroke-width="10" stroke-opacity="1"></use></g></g><g><use xlink:href="#c3GUDDjVU" opacity="1" fill="#000000" fill-opacity="0"></use><g><use xlink:href="#c3GUDDjVU" opacity="1" fill-opacity="0" stroke="#000000" stroke-width="10" stroke-opacity="1"></use></g></g></g></g></svg>